solid OpenSCAD_Model
  facet normal 0 0 -1
    outer loop
      vertex -3.7925 0.238604 -9.5
      vertex -3.77004 0.476266 -9.5
      vertex -3.8 0 -9.5
    endloop
  endfacet
  facet normal 0 0 -1
    outer loop
      vertex -3.8 0 -9.5
      vertex -3.77004 0.476266 -9.5
      vertex -3.73269 0.712049 -9.5
    endloop
  endfacet
  facet normal 0 0 -1
    outer loop
      vertex -3.8 0 -9.5
      vertex -3.73269 0.712049 -9.5
      vertex -3.68062 0.945022 -9.5
    endloop
  endfacet
  facet normal 0 0 -1
    outer loop
      vertex -3.8 0 -9.5
      vertex -3.68062 0.945022 -9.5
      vertex -3.61401 1.17426 -9.5
    endloop
  endfacet
  facet normal 0 0 -1
    outer loop
      vertex -3.8 0 -9.5
      vertex -3.61401 1.17426 -9.5
      vertex -3.53315 1.39887 -9.5
    endloop
  endfacet
  facet normal 0 0 -1
    outer loop
      vertex -3.8 0 -9.5
      vertex -3.53315 1.39887 -9.5
      vertex -3.43834 1.61796 -9.5
    endloop
  endfacet
  facet normal 0 0 -1
    outer loop
      vertex -3.8 0 -9.5
      vertex -3.43834 1.61796 -9.5
      vertex -3.32997 1.83066 -9.5
    endloop
  endfacet
  facet normal 0 0 -1
    outer loop
      vertex -3.8 0 -9.5
      vertex -3.32997 1.83066 -9.5
      vertex -3.20845 2.03614 -9.5
    endloop
  endfacet
  facet normal 0 0 -1
    outer loop
      vertex -3.8 0 -9.5
      vertex -3.20845 2.03614 -9.5
      vertex -3.07427 2.23358 -9.5
    endloop
  endfacet
  facet normal 0 0 -1
    outer loop
      vertex -3.8 0 -9.5
      vertex -3.07427 2.23358 -9.5
      vertex -2.92795 2.42221 -9.5
    endloop
  endfacet
  facet normal 0 0 -1
    outer loop
      vertex -3.8 0 -9.5
      vertex -2.92795 2.42221 -9.5
      vertex -2.77008 2.60128 -9.5
    endloop
  endfacet
  facet normal 0 0 -1
    outer loop
      vertex -3.8 0 -9.5
      vertex -2.77008 2.60128 -9.5
      vertex -2.60128 2.77008 -9.5
    endloop
  endfacet
  facet normal 0 0 -1
    outer loop
      vertex -3.8 0 -9.5
      vertex -2.60128 2.77008 -9.5
      vertex -2.42221 2.92795 -9.5
    endloop
  endfacet
  facet normal 0 0 -1
    outer loop
      vertex -3.8 0 -9.5
      vertex -2.42221 2.92795 -9.5
      vertex -2.23358 3.07427 -9.5
    endloop
  endfacet
  facet normal 0 0 -1
    outer loop
      vertex -3.8 0 -9.5
      vertex -2.23358 3.07427 -9.5
      vertex -2.03614 3.20845 -9.5
    endloop
  endfacet
  facet normal 0 0 -1
    outer loop
      vertex -3.8 0 -9.5
      vertex -2.03614 3.20845 -9.5
      vertex -1.83066 3.32997 -9.5
    endloop
  endfacet
  facet normal 0 0 -1
    outer loop
      vertex -3.8 0 -9.5
      vertex -1.83066 3.32997 -9.5
      vertex -1.61796 3.43834 -9.5
    endloop
  endfacet
  facet normal 0 0 -1
    outer loop
      vertex -3.8 0 -9.5
      vertex -1.61796 3.43834 -9.5
      vertex -1.39887 3.53315 -9.5
    endloop
  endfacet
  facet normal 0 0 -1
    outer loop
      vertex -3.8 0 -9.5
      vertex -1.39887 3.53315 -9.5
      vertex -1.17426 3.61401 -9.5
    endloop
  endfacet
  facet normal 0 0 -1
    outer loop
      vertex -3.8 0 -9.5
      vertex -1.17426 3.61401 -9.5
      vertex -0.945022 3.68062 -9.5
    endloop
  endfacet
  facet normal 0 0 -1
    outer loop
      vertex -3.8 0 -9.5
      vertex -0.945022 3.68062 -9.5
      vertex -0.712049 3.73269 -9.5
    endloop
  endfacet
  facet normal 0 0 -1
    outer loop
      vertex -3.8 0 -9.5
      vertex -0.712049 3.73269 -9.5
      vertex -0.476266 3.77004 -9.5
    endloop
  endfacet
  facet normal 0 0 -1
    outer loop
      vertex -3.8 0 -9.5
      vertex -0.476266 3.77004 -9.5
      vertex -0.238604 3.7925 -9.5
    endloop
  endfacet
  facet normal 0 0 -1
    outer loop
      vertex -3.8 0 -9.5
      vertex -0.238604 3.7925 -9.5
      vertex 0 3.8 -9.5
    endloop
  endfacet
  facet normal 0 0 -1
    outer loop
      vertex -3.8 0 -9.5
      vertex 0 3.8 -9.5
      vertex 0.238604 3.7925 -9.5
    endloop
  endfacet
  facet normal 0 0 -1
    outer loop
      vertex -3.8 0 -9.5
      vertex 0.238604 3.7925 -9.5
      vertex 0.476266 3.77004 -9.5
    endloop
  endfacet
  facet normal 0 0 -1
    outer loop
      vertex -3.8 0 -9.5
      vertex 0.476266 3.77004 -9.5
      vertex 0.712049 3.73269 -9.5
    endloop
  endfacet
  facet normal 0 0 -1
    outer loop
      vertex -3.8 0 -9.5
      vertex 0.712049 3.73269 -9.5
      vertex 0.945022 3.68062 -9.5
    endloop
  endfacet
  facet normal 0 0 -1
    outer loop
      vertex -3.8 0 -9.5
      vertex 0.945022 3.68062 -9.5
      vertex 1.17426 3.61401 -9.5
    endloop
  endfacet
  facet normal 0 0 -1
    outer loop
      vertex -3.8 0 -9.5
      vertex 1.17426 3.61401 -9.5
      vertex 1.39887 3.53315 -9.5
    endloop
  endfacet
  facet normal 0 0 -1
    outer loop
      vertex -3.8 0 -9.5
      vertex 1.39887 3.53315 -9.5
      vertex 1.61796 3.43834 -9.5
    endloop
  endfacet
  facet normal 0 0 -1
    outer loop
      vertex -3.8 0 -9.5
      vertex 1.61796 3.43834 -9.5
      vertex 1.83066 3.32997 -9.5
    endloop
  endfacet
  facet normal 0 0 -1
    outer loop
      vertex -3.8 0 -9.5
      vertex 1.83066 3.32997 -9.5
      vertex 2.03614 3.20845 -9.5
    endloop
  endfacet
  facet normal 0 0 -1
    outer loop
      vertex -3.8 0 -9.5
      vertex 2.03614 3.20845 -9.5
      vertex 2.23358 3.07427 -9.5
    endloop
  endfacet
  facet normal 0 0 -1
    outer loop
      vertex -3.8 0 -9.5
      vertex 2.23358 3.07427 -9.5
      vertex 2.42221 2.92795 -9.5
    endloop
  endfacet
  facet normal 0 0 -1
    outer loop
      vertex -3.8 0 -9.5
      vertex 2.42221 2.92795 -9.5
      vertex 2.60128 2.77008 -9.5
    endloop
  endfacet
  facet normal 0 0 -1
    outer loop
      vertex -3.8 0 -9.5
      vertex 2.60128 2.77008 -9.5
      vertex 2.77008 2.60128 -9.5
    endloop
  endfacet
  facet normal 0 0 -1
    outer loop
      vertex -3.8 0 -9.5
      vertex 2.77008 2.60128 -9.5
      vertex 2.92795 2.42221 -9.5
    endloop
  endfacet
  facet normal 0 0 -1
    outer loop
      vertex -3.8 0 -9.5
      vertex 2.92795 2.42221 -9.5
      vertex 3.07427 2.23358 -9.5
    endloop
  endfacet
  facet normal 0 0 -1
    outer loop
      vertex -3.8 0 -9.5
      vertex 3.07427 2.23358 -9.5
      vertex 3.20845 2.03614 -9.5
    endloop
  endfacet
  facet normal 0 0 -1
    outer loop
      vertex -3.8 0 -9.5
      vertex 3.20845 2.03614 -9.5
      vertex 3.32997 1.83066 -9.5
    endloop
  endfacet
  facet normal 0 0 -1
    outer loop
      vertex -3.8 0 -9.5
      vertex 3.32997 1.83066 -9.5
      vertex 3.43834 1.61796 -9.5
    endloop
  endfacet
  facet normal 0 0 -1
    outer loop
      vertex -3.8 0 -9.5
      vertex 3.43834 1.61796 -9.5
      vertex 3.53315 1.39887 -9.5
    endloop
  endfacet
  facet normal 0 0 -1
    outer loop
      vertex -3.8 0 -9.5
      vertex 3.53315 1.39887 -9.5
      vertex 3.61401 1.17426 -9.5
    endloop
  endfacet
  facet normal 0 0 -1
    outer loop
      vertex -3.8 0 -9.5
      vertex 3.61401 1.17426 -9.5
      vertex 3.68062 0.945022 -9.5
    endloop
  endfacet
  facet normal 0 0 -1
    outer loop
      vertex -3.8 0 -9.5
      vertex 3.68062 0.945022 -9.5
      vertex 3.73269 0.712049 -9.5
    endloop
  endfacet
  facet normal 0 0 -1
    outer loop
      vertex -3.8 0 -9.5
      vertex 3.73269 0.712049 -9.5
      vertex 3.77004 0.476266 -9.5
    endloop
  endfacet
  facet normal 0 0 -1
    outer loop
      vertex -3.8 0 -9.5
      vertex 3.77004 0.476266 -9.5
      vertex 3.7925 0.238604 -9.5
    endloop
  endfacet
  facet normal 0 0 -1
    outer loop
      vertex -3.8 0 -9.5
      vertex 3.7925 0.238604 -9.5
      vertex 3.8 0 -9.5
    endloop
  endfacet
  facet normal 0 0 -1
    outer loop
      vertex -3.8 0 -9.5
      vertex 3.8 0 -9.5
      vertex 3.7925 -0.238604 -9.5
    endloop
  endfacet
  facet normal 0 0 -1
    outer loop
      vertex -3.8 0 -9.5
      vertex 3.7925 -0.238604 -9.5
      vertex 3.77004 -0.476266 -9.5
    endloop
  endfacet
  facet normal 0 0 -1
    outer loop
      vertex -3.8 0 -9.5
      vertex 3.77004 -0.476266 -9.5
      vertex 3.73269 -0.712049 -9.5
    endloop
  endfacet
  facet normal 0 0 -1
    outer loop
      vertex -3.8 0 -9.5
      vertex 3.73269 -0.712049 -9.5
      vertex 3.68062 -0.945022 -9.5
    endloop
  endfacet
  facet normal 0 0 -1
    outer loop
      vertex -3.8 0 -9.5
      vertex 3.68062 -0.945022 -9.5
      vertex 3.61401 -1.17426 -9.5
    endloop
  endfacet
  facet normal 0 0 -1
    outer loop
      vertex -3.8 0 -9.5
      vertex 3.61401 -1.17426 -9.5
      vertex 3.53315 -1.39887 -9.5
    endloop
  endfacet
  facet normal 0 0 -1
    outer loop
      vertex -3.8 0 -9.5
      vertex 3.53315 -1.39887 -9.5
      vertex 3.43834 -1.61796 -9.5
    endloop
  endfacet
  facet normal 0 0 -1
    outer loop
      vertex -3.8 0 -9.5
      vertex 3.43834 -1.61796 -9.5
      vertex 3.32997 -1.83066 -9.5
    endloop
  endfacet
  facet normal 0 0 -1
    outer loop
      vertex -3.8 0 -9.5
      vertex 3.32997 -1.83066 -9.5
      vertex 3.20845 -2.03614 -9.5
    endloop
  endfacet
  facet normal 0 0 -1
    outer loop
      vertex -3.8 0 -9.5
      vertex 3.20845 -2.03614 -9.5
      vertex 3.07427 -2.23358 -9.5
    endloop
  endfacet
  facet normal 0 0 -1
    outer loop
      vertex -3.8 0 -9.5
      vertex 3.07427 -2.23358 -9.5
      vertex 2.92795 -2.42221 -9.5
    endloop
  endfacet
  facet normal 0 0 -1
    outer loop
      vertex -3.8 0 -9.5
      vertex 2.92795 -2.42221 -9.5
      vertex 2.77008 -2.60128 -9.5
    endloop
  endfacet
  facet normal 0 0 -1
    outer loop
      vertex -3.8 0 -9.5
      vertex 2.77008 -2.60128 -9.5
      vertex 2.60128 -2.77008 -9.5
    endloop
  endfacet
  facet normal 0 0 -1
    outer loop
      vertex -3.8 0 -9.5
      vertex 2.60128 -2.77008 -9.5
      vertex 2.42221 -2.92795 -9.5
    endloop
  endfacet
  facet normal 0 0 -1
    outer loop
      vertex -3.8 0 -9.5
      vertex 2.42221 -2.92795 -9.5
      vertex 2.23358 -3.07427 -9.5
    endloop
  endfacet
  facet normal 0 0 -1
    outer loop
      vertex -3.8 0 -9.5
      vertex 2.23358 -3.07427 -9.5
      vertex 2.03614 -3.20845 -9.5
    endloop
  endfacet
  facet normal 0 0 -1
    outer loop
      vertex -3.8 0 -9.5
      vertex 2.03614 -3.20845 -9.5
      vertex 1.83066 -3.32997 -9.5
    endloop
  endfacet
  facet normal 0 0 -1
    outer loop
      vertex -3.8 0 -9.5
      vertex 1.83066 -3.32997 -9.5
      vertex 1.61796 -3.43834 -9.5
    endloop
  endfacet
  facet normal 0 0 -1
    outer loop
      vertex -3.8 0 -9.5
      vertex 1.61796 -3.43834 -9.5
      vertex 1.39887 -3.53315 -9.5
    endloop
  endfacet
  facet normal 0 0 -1
    outer loop
      vertex -3.8 0 -9.5
      vertex 1.39887 -3.53315 -9.5
      vertex 1.17426 -3.61401 -9.5
    endloop
  endfacet
  facet normal 0 0 -1
    outer loop
      vertex -3.8 0 -9.5
      vertex 1.17426 -3.61401 -9.5
      vertex 0.945022 -3.68062 -9.5
    endloop
  endfacet
  facet normal 0 0 -1
    outer loop
      vertex -3.8 0 -9.5
      vertex 0.945022 -3.68062 -9.5
      vertex 0.712049 -3.73269 -9.5
    endloop
  endfacet
  facet normal 0 0 -1
    outer loop
      vertex -3.8 0 -9.5
      vertex 0.712049 -3.73269 -9.5
      vertex 0.476266 -3.77004 -9.5
    endloop
  endfacet
  facet normal 0 0 -1
    outer loop
      vertex -3.8 0 -9.5
      vertex 0.476266 -3.77004 -9.5
      vertex 0.238604 -3.7925 -9.5
    endloop
  endfacet
  facet normal 0 0 -1
    outer loop
      vertex -3.8 0 -9.5
      vertex 0.238604 -3.7925 -9.5
      vertex 0 -3.8 -9.5
    endloop
  endfacet
  facet normal 0 0 -1
    outer loop
      vertex -3.8 0 -9.5
      vertex 0 -3.8 -9.5
      vertex -0.238604 -3.7925 -9.5
    endloop
  endfacet
  facet normal 0 0 -1
    outer loop
      vertex -3.8 0 -9.5
      vertex -0.238604 -3.7925 -9.5
      vertex -0.476266 -3.77004 -9.5
    endloop
  endfacet
  facet normal 0 0 -1
    outer loop
      vertex -3.8 0 -9.5
      vertex -0.476266 -3.77004 -9.5
      vertex -0.712049 -3.73269 -9.5
    endloop
  endfacet
  facet normal 0 0 -1
    outer loop
      vertex -3.8 0 -9.5
      vertex -0.712049 -3.73269 -9.5
      vertex -0.945022 -3.68062 -9.5
    endloop
  endfacet
  facet normal 0 0 -1
    outer loop
      vertex -3.8 0 -9.5
      vertex -0.945022 -3.68062 -9.5
      vertex -1.17426 -3.61401 -9.5
    endloop
  endfacet
  facet normal 0 0 -1
    outer loop
      vertex -3.8 0 -9.5
      vertex -1.17426 -3.61401 -9.5
      vertex -1.39887 -3.53315 -9.5
    endloop
  endfacet
  facet normal 0 0 -1
    outer loop
      vertex -3.8 0 -9.5
      vertex -1.39887 -3.53315 -9.5
      vertex -1.61796 -3.43834 -9.5
    endloop
  endfacet
  facet normal 0 0 -1
    outer loop
      vertex -3.8 0 -9.5
      vertex -1.61796 -3.43834 -9.5
      vertex -1.83066 -3.32997 -9.5
    endloop
  endfacet
  facet normal 0 0 -1
    outer loop
      vertex -3.8 0 -9.5
      vertex -1.83066 -3.32997 -9.5
      vertex -2.03614 -3.20845 -9.5
    endloop
  endfacet
  facet normal 0 0 -1
    outer loop
      vertex -3.8 0 -9.5
      vertex -2.03614 -3.20845 -9.5
      vertex -2.23358 -3.07427 -9.5
    endloop
  endfacet
  facet normal 0 0 -1
    outer loop
      vertex -3.8 0 -9.5
      vertex -2.23358 -3.07427 -9.5
      vertex -2.42221 -2.92795 -9.5
    endloop
  endfacet
  facet normal 0 0 -1
    outer loop
      vertex -3.8 0 -9.5
      vertex -2.42221 -2.92795 -9.5
      vertex -2.60128 -2.77008 -9.5
    endloop
  endfacet
  facet normal 0 0 -1
    outer loop
      vertex -3.8 0 -9.5
      vertex -2.60128 -2.77008 -9.5
      vertex -2.77008 -2.60128 -9.5
    endloop
  endfacet
  facet normal 0 0 -1
    outer loop
      vertex -3.8 0 -9.5
      vertex -2.77008 -2.60128 -9.5
      vertex -2.92795 -2.42221 -9.5
    endloop
  endfacet
  facet normal 0 0 -1
    outer loop
      vertex -3.8 0 -9.5
      vertex -2.92795 -2.42221 -9.5
      vertex -3.07427 -2.23358 -9.5
    endloop
  endfacet
  facet normal 0 0 -1
    outer loop
      vertex -3.8 0 -9.5
      vertex -3.07427 -2.23358 -9.5
      vertex -3.20845 -2.03614 -9.5
    endloop
  endfacet
  facet normal 0 0 -1
    outer loop
      vertex -3.8 0 -9.5
      vertex -3.20845 -2.03614 -9.5
      vertex -3.32997 -1.83066 -9.5
    endloop
  endfacet
  facet normal 0 0 -1
    outer loop
      vertex -3.8 0 -9.5
      vertex -3.32997 -1.83066 -9.5
      vertex -3.43834 -1.61796 -9.5
    endloop
  endfacet
  facet normal 0 0 -1
    outer loop
      vertex -3.8 0 -9.5
      vertex -3.43834 -1.61796 -9.5
      vertex -3.53315 -1.39887 -9.5
    endloop
  endfacet
  facet normal 0 0 -1
    outer loop
      vertex -3.8 0 -9.5
      vertex -3.53315 -1.39887 -9.5
      vertex -3.61401 -1.17426 -9.5
    endloop
  endfacet
  facet normal 0 0 -1
    outer loop
      vertex -3.8 0 -9.5
      vertex -3.61401 -1.17426 -9.5
      vertex -3.68062 -0.945022 -9.5
    endloop
  endfacet
  facet normal 0 0 -1
    outer loop
      vertex -3.8 0 -9.5
      vertex -3.68062 -0.945022 -9.5
      vertex -3.73269 -0.712049 -9.5
    endloop
  endfacet
  facet normal 0 0 -1
    outer loop
      vertex -3.8 0 -9.5
      vertex -3.73269 -0.712049 -9.5
      vertex -3.77004 -0.476266 -9.5
    endloop
  endfacet
  facet normal 0 0 -1
    outer loop
      vertex -3.8 0 -9.5
      vertex -3.77004 -0.476266 -9.5
      vertex -3.7925 -0.238604 -9.5
    endloop
  endfacet
  facet normal 0.999507 0.0314089 0
    outer loop
      vertex 3.7925 0.238604 -9.5
      vertex 3.7925 0.238604 9.5
      vertex 3.8 0 9.5
    endloop
  endfacet
  facet normal 0.999507 0.0314089 0
    outer loop
      vertex 3.8 0 -9.5
      vertex 3.7925 0.238604 -9.5
      vertex 3.8 0 9.5
    endloop
  endfacet
  facet normal 0.995562 0.0941097 0
    outer loop
      vertex 3.77004 0.476266 -9.5
      vertex 3.77004 0.476266 9.5
      vertex 3.7925 0.238604 9.5
    endloop
  endfacet
  facet normal 0.995562 0.0941097 0
    outer loop
      vertex 3.7925 0.238604 -9.5
      vertex 3.77004 0.476266 -9.5
      vertex 3.7925 0.238604 9.5
    endloop
  endfacet
  facet normal -0.999507 0.0314089 0
    outer loop
      vertex -3.8 0 9.5
      vertex -3.7925 0.238604 9.5
      vertex -3.8 0 -9.5
    endloop
  endfacet
  facet normal -0.999507 0.0314089 0
    outer loop
      vertex -3.8 0 -9.5
      vertex -3.7925 0.238604 9.5
      vertex -3.7925 0.238604 -9.5
    endloop
  endfacet
  facet normal -0.999507 -0.0314089 0
    outer loop
      vertex -3.7925 -0.238604 -9.5
      vertex -3.7925 -0.238604 9.5
      vertex -3.8 0 -9.5
    endloop
  endfacet
  facet normal -0.999507 -0.0314089 0
    outer loop
      vertex -3.8 0 -9.5
      vertex -3.7925 -0.238604 9.5
      vertex -3.8 0 9.5
    endloop
  endfacet
  facet normal -0.995562 -0.0941097 0
    outer loop
      vertex -3.77004 -0.476266 -9.5
      vertex -3.77004 -0.476266 9.5
      vertex -3.7925 -0.238604 -9.5
    endloop
  endfacet
  facet normal -0.995562 -0.0941097 0
    outer loop
      vertex -3.7925 -0.238604 -9.5
      vertex -3.77004 -0.476266 9.5
      vertex -3.7925 -0.238604 9.5
    endloop
  endfacet
  facet normal -0.987689 -0.156433 0
    outer loop
      vertex -3.73269 -0.712049 -9.5
      vertex -3.73269 -0.712049 9.5
      vertex -3.77004 -0.476266 -9.5
    endloop
  endfacet
  facet normal -0.987689 -0.156433 0
    outer loop
      vertex -3.77004 -0.476266 -9.5
      vertex -3.73269 -0.712049 9.5
      vertex -3.77004 -0.476266 9.5
    endloop
  endfacet
  facet normal -0.975916 -0.218145 0
    outer loop
      vertex -3.68062 -0.945022 -9.5
      vertex -3.68062 -0.945022 9.5
      vertex -3.73269 -0.712049 -9.5
    endloop
  endfacet
  facet normal -0.975916 -0.218145 0
    outer loop
      vertex -3.73269 -0.712049 -9.5
      vertex -3.68062 -0.945022 9.5
      vertex -3.73269 -0.712049 9.5
    endloop
  endfacet
  facet normal -0.960294 -0.27899 0
    outer loop
      vertex -3.61401 -1.17426 -9.5
      vertex -3.61401 -1.17426 9.5
      vertex -3.68062 -0.945022 -9.5
    endloop
  endfacet
  facet normal -0.960294 -0.27899 0
    outer loop
      vertex -3.68062 -0.945022 -9.5
      vertex -3.61401 -1.17426 9.5
      vertex -3.68062 -0.945022 9.5
    endloop
  endfacet
  facet normal -0.940881 -0.338738 0
    outer loop
      vertex -3.53315 -1.39887 -9.5
      vertex -3.53315 -1.39887 9.5
      vertex -3.61401 -1.17426 -9.5
    endloop
  endfacet
  facet normal -0.940881 -0.338738 0
    outer loop
      vertex -3.61401 -1.17426 -9.5
      vertex -3.53315 -1.39887 9.5
      vertex -3.61401 -1.17426 9.5
    endloop
  endfacet
  facet normal -0.917754 -0.397148 0
    outer loop
      vertex -3.43834 -1.61796 -9.5
      vertex -3.43834 -1.61796 9.5
      vertex -3.53315 -1.39887 -9.5
    endloop
  endfacet
  facet normal -0.917754 -0.397148 0
    outer loop
      vertex -3.53315 -1.39887 -9.5
      vertex -3.43834 -1.61796 9.5
      vertex -3.53315 -1.39887 9.5
    endloop
  endfacet
  facet normal -0.891006 -0.453992 0
    outer loop
      vertex -3.32997 -1.83066 -9.5
      vertex -3.32997 -1.83066 9.5
      vertex -3.43834 -1.61796 -9.5
    endloop
  endfacet
  facet normal -0.891006 -0.453992 0
    outer loop
      vertex -3.43834 -1.61796 -9.5
      vertex -3.32997 -1.83066 9.5
      vertex -3.43834 -1.61796 9.5
    endloop
  endfacet
  facet normal -0.860743 -0.50904 0
    outer loop
      vertex -3.20845 -2.03614 -9.5
      vertex -3.20845 -2.03614 9.5
      vertex -3.32997 -1.83066 -9.5
    endloop
  endfacet
  facet normal -0.860743 -0.50904 0
    outer loop
      vertex -3.32997 -1.83066 -9.5
      vertex -3.20845 -2.03614 9.5
      vertex -3.32997 -1.83066 9.5
    endloop
  endfacet
  facet normal -0.827081 -0.562082 0
    outer loop
      vertex -3.07427 -2.23358 -9.5
      vertex -3.07427 -2.23358 9.5
      vertex -3.20845 -2.03614 -9.5
    endloop
  endfacet
  facet normal -0.827081 -0.562082 0
    outer loop
      vertex -3.20845 -2.03614 -9.5
      vertex -3.07427 -2.23358 9.5
      vertex -3.20845 -2.03614 9.5
    endloop
  endfacet
  facet normal -0.790153 -0.612909 0
    outer loop
      vertex -2.92795 -2.42221 -9.5
      vertex -2.92795 -2.42221 9.5
      vertex -3.07427 -2.23358 -9.5
    endloop
  endfacet
  facet normal -0.790153 -0.612909 0
    outer loop
      vertex -3.07427 -2.23358 -9.5
      vertex -2.92795 -2.42221 9.5
      vertex -3.07427 -2.23358 9.5
    endloop
  endfacet
  facet normal -0.750112 -0.66131 0
    outer loop
      vertex -2.77008 -2.60128 -9.5
      vertex -2.77008 -2.60128 9.5
      vertex -2.92795 -2.42221 -9.5
    endloop
  endfacet
  facet normal -0.750112 -0.66131 0
    outer loop
      vertex -2.92795 -2.42221 -9.5
      vertex -2.77008 -2.60128 9.5
      vertex -2.92795 -2.42221 9.5
    endloop
  endfacet
  facet normal -0.707107 -0.707107 0
    outer loop
      vertex -2.77008 -2.60128 -9.5
      vertex -2.60128 -2.77008 -9.5
      vertex -2.60128 -2.77008 9.5
    endloop
  endfacet
  facet normal -0.707107 -0.707107 0
    outer loop
      vertex -2.77008 -2.60128 9.5
      vertex -2.77008 -2.60128 -9.5
      vertex -2.60128 -2.77008 9.5
    endloop
  endfacet
  facet normal -0.66131 -0.750112 0
    outer loop
      vertex -2.60128 -2.77008 -9.5
      vertex -2.42221 -2.92795 -9.5
      vertex -2.42221 -2.92795 9.5
    endloop
  endfacet
  facet normal -0.66131 -0.750112 0
    outer loop
      vertex -2.60128 -2.77008 9.5
      vertex -2.60128 -2.77008 -9.5
      vertex -2.42221 -2.92795 9.5
    endloop
  endfacet
  facet normal -0.612909 -0.790153 0
    outer loop
      vertex -2.42221 -2.92795 -9.5
      vertex -2.23358 -3.07427 -9.5
      vertex -2.23358 -3.07427 9.5
    endloop
  endfacet
  facet normal -0.612909 -0.790153 0
    outer loop
      vertex -2.42221 -2.92795 9.5
      vertex -2.42221 -2.92795 -9.5
      vertex -2.23358 -3.07427 9.5
    endloop
  endfacet
  facet normal -0.562082 -0.827081 0
    outer loop
      vertex -2.23358 -3.07427 -9.5
      vertex -2.03614 -3.20845 -9.5
      vertex -2.03614 -3.20845 9.5
    endloop
  endfacet
  facet normal -0.562082 -0.827081 0
    outer loop
      vertex -2.23358 -3.07427 9.5
      vertex -2.23358 -3.07427 -9.5
      vertex -2.03614 -3.20845 9.5
    endloop
  endfacet
  facet normal -0.50904 -0.860743 0
    outer loop
      vertex -2.03614 -3.20845 -9.5
      vertex -1.83066 -3.32997 -9.5
      vertex -1.83066 -3.32997 9.5
    endloop
  endfacet
  facet normal -0.50904 -0.860743 0
    outer loop
      vertex -2.03614 -3.20845 9.5
      vertex -2.03614 -3.20845 -9.5
      vertex -1.83066 -3.32997 9.5
    endloop
  endfacet
  facet normal -0.453992 -0.891006 0
    outer loop
      vertex -1.83066 -3.32997 -9.5
      vertex -1.61796 -3.43834 -9.5
      vertex -1.61796 -3.43834 9.5
    endloop
  endfacet
  facet normal -0.453992 -0.891006 0
    outer loop
      vertex -1.83066 -3.32997 9.5
      vertex -1.83066 -3.32997 -9.5
      vertex -1.61796 -3.43834 9.5
    endloop
  endfacet
  facet normal -0.397148 -0.917754 0
    outer loop
      vertex -1.61796 -3.43834 -9.5
      vertex -1.39887 -3.53315 -9.5
      vertex -1.39887 -3.53315 9.5
    endloop
  endfacet
  facet normal -0.397148 -0.917754 0
    outer loop
      vertex -1.61796 -3.43834 9.5
      vertex -1.61796 -3.43834 -9.5
      vertex -1.39887 -3.53315 9.5
    endloop
  endfacet
  facet normal -0.338738 -0.940881 0
    outer loop
      vertex -1.39887 -3.53315 -9.5
      vertex -1.17426 -3.61401 -9.5
      vertex -1.17426 -3.61401 9.5
    endloop
  endfacet
  facet normal -0.338738 -0.940881 0
    outer loop
      vertex -1.39887 -3.53315 9.5
      vertex -1.39887 -3.53315 -9.5
      vertex -1.17426 -3.61401 9.5
    endloop
  endfacet
  facet normal -0.27899 -0.960294 0
    outer loop
      vertex -1.17426 -3.61401 -9.5
      vertex -0.945022 -3.68062 -9.5
      vertex -0.945022 -3.68062 9.5
    endloop
  endfacet
  facet normal -0.27899 -0.960294 0
    outer loop
      vertex -1.17426 -3.61401 9.5
      vertex -1.17426 -3.61401 -9.5
      vertex -0.945022 -3.68062 9.5
    endloop
  endfacet
  facet normal -0.218145 -0.975916 0
    outer loop
      vertex -0.945022 -3.68062 -9.5
      vertex -0.712049 -3.73269 -9.5
      vertex -0.712049 -3.73269 9.5
    endloop
  endfacet
  facet normal -0.218145 -0.975916 0
    outer loop
      vertex -0.945022 -3.68062 9.5
      vertex -0.945022 -3.68062 -9.5
      vertex -0.712049 -3.73269 9.5
    endloop
  endfacet
  facet normal -0.156433 -0.987689 0
    outer loop
      vertex -0.712049 -3.73269 -9.5
      vertex -0.476266 -3.77004 -9.5
      vertex -0.476266 -3.77004 9.5
    endloop
  endfacet
  facet normal -0.156433 -0.987689 0
    outer loop
      vertex -0.712049 -3.73269 9.5
      vertex -0.712049 -3.73269 -9.5
      vertex -0.476266 -3.77004 9.5
    endloop
  endfacet
  facet normal -0.0941097 -0.995562 0
    outer loop
      vertex -0.476266 -3.77004 -9.5
      vertex -0.238604 -3.7925 -9.5
      vertex -0.238604 -3.7925 9.5
    endloop
  endfacet
  facet normal -0.0941097 -0.995562 0
    outer loop
      vertex -0.476266 -3.77004 9.5
      vertex -0.476266 -3.77004 -9.5
      vertex -0.238604 -3.7925 9.5
    endloop
  endfacet
  facet normal -0.0314089 -0.999507 0
    outer loop
      vertex -0.238604 -3.7925 -9.5
      vertex 0 -3.8 -9.5
      vertex 0 -3.8 9.5
    endloop
  endfacet
  facet normal -0.0314089 -0.999507 0
    outer loop
      vertex -0.238604 -3.7925 9.5
      vertex -0.238604 -3.7925 -9.5
      vertex 0 -3.8 9.5
    endloop
  endfacet
  facet normal 0.0314089 -0.999507 0
    outer loop
      vertex 0 -3.8 -9.5
      vertex 0.238604 -3.7925 -9.5
      vertex 0.238604 -3.7925 9.5
    endloop
  endfacet
  facet normal 0.0314089 -0.999507 0
    outer loop
      vertex 0 -3.8 9.5
      vertex 0 -3.8 -9.5
      vertex 0.238604 -3.7925 9.5
    endloop
  endfacet
  facet normal 0.0941097 -0.995562 0
    outer loop
      vertex 0.238604 -3.7925 -9.5
      vertex 0.476266 -3.77004 -9.5
      vertex 0.476266 -3.77004 9.5
    endloop
  endfacet
  facet normal 0.0941097 -0.995562 0
    outer loop
      vertex 0.238604 -3.7925 9.5
      vertex 0.238604 -3.7925 -9.5
      vertex 0.476266 -3.77004 9.5
    endloop
  endfacet
  facet normal 0.156433 -0.987689 0
    outer loop
      vertex 0.476266 -3.77004 -9.5
      vertex 0.712049 -3.73269 -9.5
      vertex 0.712049 -3.73269 9.5
    endloop
  endfacet
  facet normal 0.156433 -0.987689 0
    outer loop
      vertex 0.476266 -3.77004 9.5
      vertex 0.476266 -3.77004 -9.5
      vertex 0.712049 -3.73269 9.5
    endloop
  endfacet
  facet normal 0.218145 -0.975916 0
    outer loop
      vertex 0.712049 -3.73269 -9.5
      vertex 0.945022 -3.68062 -9.5
      vertex 0.945022 -3.68062 9.5
    endloop
  endfacet
  facet normal 0.218145 -0.975916 0
    outer loop
      vertex 0.712049 -3.73269 9.5
      vertex 0.712049 -3.73269 -9.5
      vertex 0.945022 -3.68062 9.5
    endloop
  endfacet
  facet normal 0.27899 -0.960294 0
    outer loop
      vertex 0.945022 -3.68062 -9.5
      vertex 1.17426 -3.61401 -9.5
      vertex 1.17426 -3.61401 9.5
    endloop
  endfacet
  facet normal 0.27899 -0.960294 0
    outer loop
      vertex 0.945022 -3.68062 9.5
      vertex 0.945022 -3.68062 -9.5
      vertex 1.17426 -3.61401 9.5
    endloop
  endfacet
  facet normal 0.338738 -0.940881 0
    outer loop
      vertex 1.17426 -3.61401 -9.5
      vertex 1.39887 -3.53315 -9.5
      vertex 1.39887 -3.53315 9.5
    endloop
  endfacet
  facet normal 0.338738 -0.940881 0
    outer loop
      vertex 1.17426 -3.61401 9.5
      vertex 1.17426 -3.61401 -9.5
      vertex 1.39887 -3.53315 9.5
    endloop
  endfacet
  facet normal 0.397148 -0.917754 0
    outer loop
      vertex 1.39887 -3.53315 -9.5
      vertex 1.61796 -3.43834 -9.5
      vertex 1.61796 -3.43834 9.5
    endloop
  endfacet
  facet normal 0.397148 -0.917754 0
    outer loop
      vertex 1.39887 -3.53315 9.5
      vertex 1.39887 -3.53315 -9.5
      vertex 1.61796 -3.43834 9.5
    endloop
  endfacet
  facet normal 0.453992 -0.891006 0
    outer loop
      vertex 1.61796 -3.43834 -9.5
      vertex 1.83066 -3.32997 -9.5
      vertex 1.83066 -3.32997 9.5
    endloop
  endfacet
  facet normal 0.453992 -0.891006 0
    outer loop
      vertex 1.61796 -3.43834 9.5
      vertex 1.61796 -3.43834 -9.5
      vertex 1.83066 -3.32997 9.5
    endloop
  endfacet
  facet normal 0.50904 -0.860743 0
    outer loop
      vertex 1.83066 -3.32997 -9.5
      vertex 2.03614 -3.20845 -9.5
      vertex 2.03614 -3.20845 9.5
    endloop
  endfacet
  facet normal 0.50904 -0.860743 0
    outer loop
      vertex 1.83066 -3.32997 9.5
      vertex 1.83066 -3.32997 -9.5
      vertex 2.03614 -3.20845 9.5
    endloop
  endfacet
  facet normal 0.562082 -0.827081 0
    outer loop
      vertex 2.03614 -3.20845 -9.5
      vertex 2.23358 -3.07427 -9.5
      vertex 2.23358 -3.07427 9.5
    endloop
  endfacet
  facet normal 0.562082 -0.827081 0
    outer loop
      vertex 2.03614 -3.20845 9.5
      vertex 2.03614 -3.20845 -9.5
      vertex 2.23358 -3.07427 9.5
    endloop
  endfacet
  facet normal 0.612909 -0.790153 0
    outer loop
      vertex 2.23358 -3.07427 -9.5
      vertex 2.42221 -2.92795 -9.5
      vertex 2.42221 -2.92795 9.5
    endloop
  endfacet
  facet normal 0.612909 -0.790153 0
    outer loop
      vertex 2.23358 -3.07427 9.5
      vertex 2.23358 -3.07427 -9.5
      vertex 2.42221 -2.92795 9.5
    endloop
  endfacet
  facet normal 0.66131 -0.750112 0
    outer loop
      vertex 2.42221 -2.92795 -9.5
      vertex 2.60128 -2.77008 -9.5
      vertex 2.60128 -2.77008 9.5
    endloop
  endfacet
  facet normal 0.66131 -0.750112 0
    outer loop
      vertex 2.42221 -2.92795 9.5
      vertex 2.42221 -2.92795 -9.5
      vertex 2.60128 -2.77008 9.5
    endloop
  endfacet
  facet normal 0.707107 -0.707107 0
    outer loop
      vertex 2.60128 -2.77008 -9.5
      vertex 2.77008 -2.60128 -9.5
      vertex 2.77008 -2.60128 9.5
    endloop
  endfacet
  facet normal 0.707107 -0.707107 0
    outer loop
      vertex 2.60128 -2.77008 9.5
      vertex 2.60128 -2.77008 -9.5
      vertex 2.77008 -2.60128 9.5
    endloop
  endfacet
  facet normal 0.750112 -0.66131 0
    outer loop
      vertex 2.77008 -2.60128 -9.5
      vertex 2.92795 -2.42221 -9.5
      vertex 2.92795 -2.42221 9.5
    endloop
  endfacet
  facet normal 0.750112 -0.66131 0
    outer loop
      vertex 2.77008 -2.60128 9.5
      vertex 2.77008 -2.60128 -9.5
      vertex 2.92795 -2.42221 9.5
    endloop
  endfacet
  facet normal 0.790153 -0.612909 0
    outer loop
      vertex 2.92795 -2.42221 -9.5
      vertex 3.07427 -2.23358 -9.5
      vertex 3.07427 -2.23358 9.5
    endloop
  endfacet
  facet normal 0.790153 -0.612909 0
    outer loop
      vertex 2.92795 -2.42221 9.5
      vertex 2.92795 -2.42221 -9.5
      vertex 3.07427 -2.23358 9.5
    endloop
  endfacet
  facet normal 0.827081 -0.562082 0
    outer loop
      vertex 3.07427 -2.23358 -9.5
      vertex 3.20845 -2.03614 -9.5
      vertex 3.20845 -2.03614 9.5
    endloop
  endfacet
  facet normal 0.827081 -0.562082 0
    outer loop
      vertex 3.07427 -2.23358 9.5
      vertex 3.07427 -2.23358 -9.5
      vertex 3.20845 -2.03614 9.5
    endloop
  endfacet
  facet normal 0.860743 -0.50904 0
    outer loop
      vertex 3.20845 -2.03614 -9.5
      vertex 3.32997 -1.83066 -9.5
      vertex 3.32997 -1.83066 9.5
    endloop
  endfacet
  facet normal 0.860743 -0.50904 0
    outer loop
      vertex 3.20845 -2.03614 9.5
      vertex 3.20845 -2.03614 -9.5
      vertex 3.32997 -1.83066 9.5
    endloop
  endfacet
  facet normal 0.891006 -0.453992 0
    outer loop
      vertex 3.32997 -1.83066 -9.5
      vertex 3.43834 -1.61796 -9.5
      vertex 3.43834 -1.61796 9.5
    endloop
  endfacet
  facet normal 0.891006 -0.453992 0
    outer loop
      vertex 3.32997 -1.83066 9.5
      vertex 3.32997 -1.83066 -9.5
      vertex 3.43834 -1.61796 9.5
    endloop
  endfacet
  facet normal 0.917754 -0.397148 0
    outer loop
      vertex 3.43834 -1.61796 -9.5
      vertex 3.53315 -1.39887 -9.5
      vertex 3.53315 -1.39887 9.5
    endloop
  endfacet
  facet normal 0.917754 -0.397148 0
    outer loop
      vertex 3.43834 -1.61796 9.5
      vertex 3.43834 -1.61796 -9.5
      vertex 3.53315 -1.39887 9.5
    endloop
  endfacet
  facet normal 0.940881 -0.338738 0
    outer loop
      vertex 3.53315 -1.39887 -9.5
      vertex 3.61401 -1.17426 -9.5
      vertex 3.61401 -1.17426 9.5
    endloop
  endfacet
  facet normal 0.940881 -0.338738 0
    outer loop
      vertex 3.53315 -1.39887 9.5
      vertex 3.53315 -1.39887 -9.5
      vertex 3.61401 -1.17426 9.5
    endloop
  endfacet
  facet normal 0.960294 -0.27899 0
    outer loop
      vertex 3.61401 -1.17426 -9.5
      vertex 3.68062 -0.945022 -9.5
      vertex 3.68062 -0.945022 9.5
    endloop
  endfacet
  facet normal 0.960294 -0.27899 0
    outer loop
      vertex 3.61401 -1.17426 9.5
      vertex 3.61401 -1.17426 -9.5
      vertex 3.68062 -0.945022 9.5
    endloop
  endfacet
  facet normal 0.975916 -0.218145 0
    outer loop
      vertex 3.68062 -0.945022 -9.5
      vertex 3.73269 -0.712049 -9.5
      vertex 3.73269 -0.712049 9.5
    endloop
  endfacet
  facet normal 0.975916 -0.218145 0
    outer loop
      vertex 3.68062 -0.945022 9.5
      vertex 3.68062 -0.945022 -9.5
      vertex 3.73269 -0.712049 9.5
    endloop
  endfacet
  facet normal 0.987689 -0.156433 0
    outer loop
      vertex 3.73269 -0.712049 -9.5
      vertex 3.77004 -0.476266 -9.5
      vertex 3.77004 -0.476266 9.5
    endloop
  endfacet
  facet normal 0.987689 -0.156433 0
    outer loop
      vertex 3.73269 -0.712049 9.5
      vertex 3.73269 -0.712049 -9.5
      vertex 3.77004 -0.476266 9.5
    endloop
  endfacet
  facet normal 0.995562 -0.0941097 0
    outer loop
      vertex 3.77004 -0.476266 -9.5
      vertex 3.7925 -0.238604 -9.5
      vertex 3.7925 -0.238604 9.5
    endloop
  endfacet
  facet normal 0.995562 -0.0941097 0
    outer loop
      vertex 3.77004 -0.476266 9.5
      vertex 3.77004 -0.476266 -9.5
      vertex 3.7925 -0.238604 9.5
    endloop
  endfacet
  facet normal 0.999507 -0.0314089 0
    outer loop
      vertex 3.7925 -0.238604 -9.5
      vertex 3.8 0 -9.5
      vertex 3.8 0 9.5
    endloop
  endfacet
  facet normal 0.999507 -0.0314089 0
    outer loop
      vertex 3.7925 -0.238604 9.5
      vertex 3.7925 -0.238604 -9.5
      vertex 3.8 0 9.5
    endloop
  endfacet
  facet normal 0.987689 0.156433 0
    outer loop
      vertex 3.73269 0.712049 -9.5
      vertex 3.73269 0.712049 9.5
      vertex 3.77004 0.476266 9.5
    endloop
  endfacet
  facet normal 0.987689 0.156433 0
    outer loop
      vertex 3.77004 0.476266 -9.5
      vertex 3.73269 0.712049 -9.5
      vertex 3.77004 0.476266 9.5
    endloop
  endfacet
  facet normal 0.975916 0.218145 0
    outer loop
      vertex 3.68062 0.945022 -9.5
      vertex 3.68062 0.945022 9.5
      vertex 3.73269 0.712049 9.5
    endloop
  endfacet
  facet normal 0.975916 0.218145 0
    outer loop
      vertex 3.73269 0.712049 -9.5
      vertex 3.68062 0.945022 -9.5
      vertex 3.73269 0.712049 9.5
    endloop
  endfacet
  facet normal 0.960294 0.27899 0
    outer loop
      vertex 3.61401 1.17426 -9.5
      vertex 3.61401 1.17426 9.5
      vertex 3.68062 0.945022 9.5
    endloop
  endfacet
  facet normal 0.960294 0.27899 0
    outer loop
      vertex 3.68062 0.945022 -9.5
      vertex 3.61401 1.17426 -9.5
      vertex 3.68062 0.945022 9.5
    endloop
  endfacet
  facet normal 0.940881 0.338738 0
    outer loop
      vertex 3.53315 1.39887 -9.5
      vertex 3.53315 1.39887 9.5
      vertex 3.61401 1.17426 9.5
    endloop
  endfacet
  facet normal 0.940881 0.338738 0
    outer loop
      vertex 3.61401 1.17426 -9.5
      vertex 3.53315 1.39887 -9.5
      vertex 3.61401 1.17426 9.5
    endloop
  endfacet
  facet normal 0.917754 0.397148 0
    outer loop
      vertex 3.43834 1.61796 -9.5
      vertex 3.43834 1.61796 9.5
      vertex 3.53315 1.39887 9.5
    endloop
  endfacet
  facet normal 0.917754 0.397148 0
    outer loop
      vertex 3.53315 1.39887 -9.5
      vertex 3.43834 1.61796 -9.5
      vertex 3.53315 1.39887 9.5
    endloop
  endfacet
  facet normal 0.891006 0.453992 0
    outer loop
      vertex 3.32997 1.83066 -9.5
      vertex 3.32997 1.83066 9.5
      vertex 3.43834 1.61796 9.5
    endloop
  endfacet
  facet normal 0.891006 0.453992 0
    outer loop
      vertex 3.43834 1.61796 -9.5
      vertex 3.32997 1.83066 -9.5
      vertex 3.43834 1.61796 9.5
    endloop
  endfacet
  facet normal 0.860743 0.50904 0
    outer loop
      vertex 3.20845 2.03614 -9.5
      vertex 3.20845 2.03614 9.5
      vertex 3.32997 1.83066 9.5
    endloop
  endfacet
  facet normal 0.860743 0.50904 0
    outer loop
      vertex 3.32997 1.83066 -9.5
      vertex 3.20845 2.03614 -9.5
      vertex 3.32997 1.83066 9.5
    endloop
  endfacet
  facet normal 0.827081 0.562082 0
    outer loop
      vertex 3.07427 2.23358 -9.5
      vertex 3.07427 2.23358 9.5
      vertex 3.20845 2.03614 9.5
    endloop
  endfacet
  facet normal 0.827081 0.562082 0
    outer loop
      vertex 3.20845 2.03614 -9.5
      vertex 3.07427 2.23358 -9.5
      vertex 3.20845 2.03614 9.5
    endloop
  endfacet
  facet normal 0.790153 0.612909 0
    outer loop
      vertex 2.92795 2.42221 -9.5
      vertex 2.92795 2.42221 9.5
      vertex 3.07427 2.23358 9.5
    endloop
  endfacet
  facet normal 0.790153 0.612909 0
    outer loop
      vertex 3.07427 2.23358 -9.5
      vertex 2.92795 2.42221 -9.5
      vertex 3.07427 2.23358 9.5
    endloop
  endfacet
  facet normal 0.750112 0.66131 0
    outer loop
      vertex 2.77008 2.60128 -9.5
      vertex 2.77008 2.60128 9.5
      vertex 2.92795 2.42221 9.5
    endloop
  endfacet
  facet normal 0.750112 0.66131 0
    outer loop
      vertex 2.92795 2.42221 -9.5
      vertex 2.77008 2.60128 -9.5
      vertex 2.92795 2.42221 9.5
    endloop
  endfacet
  facet normal 0.707107 0.707107 0
    outer loop
      vertex 2.60128 2.77008 9.5
      vertex 2.77008 2.60128 9.5
      vertex 2.60128 2.77008 -9.5
    endloop
  endfacet
  facet normal 0.707107 0.707107 0
    outer loop
      vertex 2.60128 2.77008 -9.5
      vertex 2.77008 2.60128 9.5
      vertex 2.77008 2.60128 -9.5
    endloop
  endfacet
  facet normal 0.66131 0.750112 0
    outer loop
      vertex 2.42221 2.92795 9.5
      vertex 2.60128 2.77008 9.5
      vertex 2.42221 2.92795 -9.5
    endloop
  endfacet
  facet normal 0.66131 0.750112 0
    outer loop
      vertex 2.42221 2.92795 -9.5
      vertex 2.60128 2.77008 9.5
      vertex 2.60128 2.77008 -9.5
    endloop
  endfacet
  facet normal 0.612909 0.790153 0
    outer loop
      vertex 2.23358 3.07427 9.5
      vertex 2.42221 2.92795 9.5
      vertex 2.23358 3.07427 -9.5
    endloop
  endfacet
  facet normal 0.612909 0.790153 0
    outer loop
      vertex 2.23358 3.07427 -9.5
      vertex 2.42221 2.92795 9.5
      vertex 2.42221 2.92795 -9.5
    endloop
  endfacet
  facet normal 0.562082 0.827081 0
    outer loop
      vertex 2.03614 3.20845 9.5
      vertex 2.23358 3.07427 9.5
      vertex 2.03614 3.20845 -9.5
    endloop
  endfacet
  facet normal 0.562082 0.827081 0
    outer loop
      vertex 2.03614 3.20845 -9.5
      vertex 2.23358 3.07427 9.5
      vertex 2.23358 3.07427 -9.5
    endloop
  endfacet
  facet normal 0.50904 0.860743 0
    outer loop
      vertex 1.83066 3.32997 9.5
      vertex 2.03614 3.20845 9.5
      vertex 1.83066 3.32997 -9.5
    endloop
  endfacet
  facet normal 0.50904 0.860743 0
    outer loop
      vertex 1.83066 3.32997 -9.5
      vertex 2.03614 3.20845 9.5
      vertex 2.03614 3.20845 -9.5
    endloop
  endfacet
  facet normal 0.453992 0.891006 0
    outer loop
      vertex 1.61796 3.43834 9.5
      vertex 1.83066 3.32997 9.5
      vertex 1.61796 3.43834 -9.5
    endloop
  endfacet
  facet normal 0.453992 0.891006 0
    outer loop
      vertex 1.61796 3.43834 -9.5
      vertex 1.83066 3.32997 9.5
      vertex 1.83066 3.32997 -9.5
    endloop
  endfacet
  facet normal 0.397148 0.917754 0
    outer loop
      vertex 1.39887 3.53315 9.5
      vertex 1.61796 3.43834 9.5
      vertex 1.39887 3.53315 -9.5
    endloop
  endfacet
  facet normal 0.397148 0.917754 0
    outer loop
      vertex 1.39887 3.53315 -9.5
      vertex 1.61796 3.43834 9.5
      vertex 1.61796 3.43834 -9.5
    endloop
  endfacet
  facet normal 0.338738 0.940881 0
    outer loop
      vertex 1.17426 3.61401 9.5
      vertex 1.39887 3.53315 9.5
      vertex 1.17426 3.61401 -9.5
    endloop
  endfacet
  facet normal 0.338738 0.940881 0
    outer loop
      vertex 1.17426 3.61401 -9.5
      vertex 1.39887 3.53315 9.5
      vertex 1.39887 3.53315 -9.5
    endloop
  endfacet
  facet normal 0.27899 0.960294 0
    outer loop
      vertex 0.945022 3.68062 9.5
      vertex 1.17426 3.61401 9.5
      vertex 0.945022 3.68062 -9.5
    endloop
  endfacet
  facet normal 0.27899 0.960294 0
    outer loop
      vertex 0.945022 3.68062 -9.5
      vertex 1.17426 3.61401 9.5
      vertex 1.17426 3.61401 -9.5
    endloop
  endfacet
  facet normal 0.218145 0.975916 0
    outer loop
      vertex 0.712049 3.73269 9.5
      vertex 0.945022 3.68062 9.5
      vertex 0.712049 3.73269 -9.5
    endloop
  endfacet
  facet normal 0.218145 0.975916 0
    outer loop
      vertex 0.712049 3.73269 -9.5
      vertex 0.945022 3.68062 9.5
      vertex 0.945022 3.68062 -9.5
    endloop
  endfacet
  facet normal 0.156433 0.987689 0
    outer loop
      vertex 0.476266 3.77004 9.5
      vertex 0.712049 3.73269 9.5
      vertex 0.476266 3.77004 -9.5
    endloop
  endfacet
  facet normal 0.156433 0.987689 0
    outer loop
      vertex 0.476266 3.77004 -9.5
      vertex 0.712049 3.73269 9.5
      vertex 0.712049 3.73269 -9.5
    endloop
  endfacet
  facet normal 0.0941097 0.995562 0
    outer loop
      vertex 0.238604 3.7925 9.5
      vertex 0.476266 3.77004 9.5
      vertex 0.238604 3.7925 -9.5
    endloop
  endfacet
  facet normal 0.0941097 0.995562 0
    outer loop
      vertex 0.238604 3.7925 -9.5
      vertex 0.476266 3.77004 9.5
      vertex 0.476266 3.77004 -9.5
    endloop
  endfacet
  facet normal 0.0314089 0.999507 0
    outer loop
      vertex 0 3.8 9.5
      vertex 0.238604 3.7925 9.5
      vertex 0 3.8 -9.5
    endloop
  endfacet
  facet normal 0.0314089 0.999507 0
    outer loop
      vertex 0 3.8 -9.5
      vertex 0.238604 3.7925 9.5
      vertex 0.238604 3.7925 -9.5
    endloop
  endfacet
  facet normal -0.0314089 0.999507 0
    outer loop
      vertex -0.238604 3.7925 9.5
      vertex 0 3.8 9.5
      vertex -0.238604 3.7925 -9.5
    endloop
  endfacet
  facet normal -0.0314089 0.999507 0
    outer loop
      vertex -0.238604 3.7925 -9.5
      vertex 0 3.8 9.5
      vertex 0 3.8 -9.5
    endloop
  endfacet
  facet normal -0.0941097 0.995562 0
    outer loop
      vertex -0.476266 3.77004 9.5
      vertex -0.238604 3.7925 9.5
      vertex -0.476266 3.77004 -9.5
    endloop
  endfacet
  facet normal -0.0941097 0.995562 0
    outer loop
      vertex -0.476266 3.77004 -9.5
      vertex -0.238604 3.7925 9.5
      vertex -0.238604 3.7925 -9.5
    endloop
  endfacet
  facet normal -0.156433 0.987689 0
    outer loop
      vertex -0.712049 3.73269 9.5
      vertex -0.476266 3.77004 9.5
      vertex -0.712049 3.73269 -9.5
    endloop
  endfacet
  facet normal -0.156433 0.987689 0
    outer loop
      vertex -0.712049 3.73269 -9.5
      vertex -0.476266 3.77004 9.5
      vertex -0.476266 3.77004 -9.5
    endloop
  endfacet
  facet normal -0.218145 0.975916 0
    outer loop
      vertex -0.945022 3.68062 9.5
      vertex -0.712049 3.73269 9.5
      vertex -0.945022 3.68062 -9.5
    endloop
  endfacet
  facet normal -0.218145 0.975916 0
    outer loop
      vertex -0.945022 3.68062 -9.5
      vertex -0.712049 3.73269 9.5
      vertex -0.712049 3.73269 -9.5
    endloop
  endfacet
  facet normal -0.27899 0.960294 0
    outer loop
      vertex -1.17426 3.61401 9.5
      vertex -0.945022 3.68062 9.5
      vertex -1.17426 3.61401 -9.5
    endloop
  endfacet
  facet normal -0.27899 0.960294 0
    outer loop
      vertex -1.17426 3.61401 -9.5
      vertex -0.945022 3.68062 9.5
      vertex -0.945022 3.68062 -9.5
    endloop
  endfacet
  facet normal -0.338738 0.940881 0
    outer loop
      vertex -1.39887 3.53315 9.5
      vertex -1.17426 3.61401 9.5
      vertex -1.39887 3.53315 -9.5
    endloop
  endfacet
  facet normal -0.338738 0.940881 0
    outer loop
      vertex -1.39887 3.53315 -9.5
      vertex -1.17426 3.61401 9.5
      vertex -1.17426 3.61401 -9.5
    endloop
  endfacet
  facet normal -0.397148 0.917754 0
    outer loop
      vertex -1.61796 3.43834 9.5
      vertex -1.39887 3.53315 9.5
      vertex -1.61796 3.43834 -9.5
    endloop
  endfacet
  facet normal -0.397148 0.917754 0
    outer loop
      vertex -1.61796 3.43834 -9.5
      vertex -1.39887 3.53315 9.5
      vertex -1.39887 3.53315 -9.5
    endloop
  endfacet
  facet normal -0.453992 0.891006 0
    outer loop
      vertex -1.83066 3.32997 9.5
      vertex -1.61796 3.43834 9.5
      vertex -1.83066 3.32997 -9.5
    endloop
  endfacet
  facet normal -0.453992 0.891006 0
    outer loop
      vertex -1.83066 3.32997 -9.5
      vertex -1.61796 3.43834 9.5
      vertex -1.61796 3.43834 -9.5
    endloop
  endfacet
  facet normal -0.50904 0.860743 0
    outer loop
      vertex -2.03614 3.20845 9.5
      vertex -1.83066 3.32997 9.5
      vertex -2.03614 3.20845 -9.5
    endloop
  endfacet
  facet normal -0.50904 0.860743 0
    outer loop
      vertex -2.03614 3.20845 -9.5
      vertex -1.83066 3.32997 9.5
      vertex -1.83066 3.32997 -9.5
    endloop
  endfacet
  facet normal -0.562082 0.827081 0
    outer loop
      vertex -2.23358 3.07427 9.5
      vertex -2.03614 3.20845 9.5
      vertex -2.23358 3.07427 -9.5
    endloop
  endfacet
  facet normal -0.562082 0.827081 0
    outer loop
      vertex -2.23358 3.07427 -9.5
      vertex -2.03614 3.20845 9.5
      vertex -2.03614 3.20845 -9.5
    endloop
  endfacet
  facet normal -0.612909 0.790153 0
    outer loop
      vertex -2.42221 2.92795 9.5
      vertex -2.23358 3.07427 9.5
      vertex -2.42221 2.92795 -9.5
    endloop
  endfacet
  facet normal -0.612909 0.790153 0
    outer loop
      vertex -2.42221 2.92795 -9.5
      vertex -2.23358 3.07427 9.5
      vertex -2.23358 3.07427 -9.5
    endloop
  endfacet
  facet normal -0.66131 0.750112 0
    outer loop
      vertex -2.60128 2.77008 9.5
      vertex -2.42221 2.92795 9.5
      vertex -2.60128 2.77008 -9.5
    endloop
  endfacet
  facet normal -0.66131 0.750112 0
    outer loop
      vertex -2.60128 2.77008 -9.5
      vertex -2.42221 2.92795 9.5
      vertex -2.42221 2.92795 -9.5
    endloop
  endfacet
  facet normal -0.707107 0.707107 0
    outer loop
      vertex -2.77008 2.60128 9.5
      vertex -2.60128 2.77008 9.5
      vertex -2.77008 2.60128 -9.5
    endloop
  endfacet
  facet normal -0.707107 0.707107 0
    outer loop
      vertex -2.77008 2.60128 -9.5
      vertex -2.60128 2.77008 9.5
      vertex -2.60128 2.77008 -9.5
    endloop
  endfacet
  facet normal -0.750112 0.66131 0
    outer loop
      vertex -2.92795 2.42221 9.5
      vertex -2.77008 2.60128 9.5
      vertex -2.92795 2.42221 -9.5
    endloop
  endfacet
  facet normal -0.750112 0.66131 0
    outer loop
      vertex -2.92795 2.42221 -9.5
      vertex -2.77008 2.60128 9.5
      vertex -2.77008 2.60128 -9.5
    endloop
  endfacet
  facet normal -0.790153 0.612909 0
    outer loop
      vertex -3.07427 2.23358 9.5
      vertex -2.92795 2.42221 9.5
      vertex -3.07427 2.23358 -9.5
    endloop
  endfacet
  facet normal -0.790153 0.612909 0
    outer loop
      vertex -3.07427 2.23358 -9.5
      vertex -2.92795 2.42221 9.5
      vertex -2.92795 2.42221 -9.5
    endloop
  endfacet
  facet normal -0.827081 0.562082 0
    outer loop
      vertex -3.20845 2.03614 9.5
      vertex -3.07427 2.23358 9.5
      vertex -3.20845 2.03614 -9.5
    endloop
  endfacet
  facet normal -0.827081 0.562082 0
    outer loop
      vertex -3.20845 2.03614 -9.5
      vertex -3.07427 2.23358 9.5
      vertex -3.07427 2.23358 -9.5
    endloop
  endfacet
  facet normal -0.860743 0.50904 0
    outer loop
      vertex -3.32997 1.83066 9.5
      vertex -3.20845 2.03614 9.5
      vertex -3.32997 1.83066 -9.5
    endloop
  endfacet
  facet normal -0.860743 0.50904 0
    outer loop
      vertex -3.32997 1.83066 -9.5
      vertex -3.20845 2.03614 9.5
      vertex -3.20845 2.03614 -9.5
    endloop
  endfacet
  facet normal -0.891006 0.453992 0
    outer loop
      vertex -3.43834 1.61796 9.5
      vertex -3.32997 1.83066 9.5
      vertex -3.43834 1.61796 -9.5
    endloop
  endfacet
  facet normal -0.891006 0.453992 0
    outer loop
      vertex -3.43834 1.61796 -9.5
      vertex -3.32997 1.83066 9.5
      vertex -3.32997 1.83066 -9.5
    endloop
  endfacet
  facet normal -0.917754 0.397148 0
    outer loop
      vertex -3.53315 1.39887 9.5
      vertex -3.43834 1.61796 9.5
      vertex -3.53315 1.39887 -9.5
    endloop
  endfacet
  facet normal -0.917754 0.397148 0
    outer loop
      vertex -3.53315 1.39887 -9.5
      vertex -3.43834 1.61796 9.5
      vertex -3.43834 1.61796 -9.5
    endloop
  endfacet
  facet normal -0.940881 0.338738 0
    outer loop
      vertex -3.61401 1.17426 9.5
      vertex -3.53315 1.39887 9.5
      vertex -3.61401 1.17426 -9.5
    endloop
  endfacet
  facet normal -0.940881 0.338738 0
    outer loop
      vertex -3.61401 1.17426 -9.5
      vertex -3.53315 1.39887 9.5
      vertex -3.53315 1.39887 -9.5
    endloop
  endfacet
  facet normal -0.960294 0.27899 0
    outer loop
      vertex -3.68062 0.945022 9.5
      vertex -3.61401 1.17426 9.5
      vertex -3.68062 0.945022 -9.5
    endloop
  endfacet
  facet normal -0.960294 0.27899 0
    outer loop
      vertex -3.68062 0.945022 -9.5
      vertex -3.61401 1.17426 9.5
      vertex -3.61401 1.17426 -9.5
    endloop
  endfacet
  facet normal -0.975916 0.218145 0
    outer loop
      vertex -3.73269 0.712049 9.5
      vertex -3.68062 0.945022 9.5
      vertex -3.73269 0.712049 -9.5
    endloop
  endfacet
  facet normal -0.975916 0.218145 0
    outer loop
      vertex -3.73269 0.712049 -9.5
      vertex -3.68062 0.945022 9.5
      vertex -3.68062 0.945022 -9.5
    endloop
  endfacet
  facet normal -0.987689 0.156433 0
    outer loop
      vertex -3.77004 0.476266 9.5
      vertex -3.73269 0.712049 9.5
      vertex -3.77004 0.476266 -9.5
    endloop
  endfacet
  facet normal -0.987689 0.156433 0
    outer loop
      vertex -3.77004 0.476266 -9.5
      vertex -3.73269 0.712049 9.5
      vertex -3.73269 0.712049 -9.5
    endloop
  endfacet
  facet normal -0.995562 0.0941097 0
    outer loop
      vertex -3.7925 0.238604 9.5
      vertex -3.77004 0.476266 9.5
      vertex -3.7925 0.238604 -9.5
    endloop
  endfacet
  facet normal -0.995562 0.0941097 0
    outer loop
      vertex -3.7925 0.238604 -9.5
      vertex -3.77004 0.476266 9.5
      vertex -3.77004 0.476266 -9.5
    endloop
  endfacet
  facet normal 0 0 1
    outer loop
      vertex -3.8 0 9.5
      vertex -3.7925 -0.238604 9.5
      vertex -3.77004 -0.476266 9.5
    endloop
  endfacet
  facet normal 0 0 1
    outer loop
      vertex -3.68062 -0.945022 9.5
      vertex -3.8 0 9.5
      vertex -3.73269 -0.712049 9.5
    endloop
  endfacet
  facet normal 0 0 1
    outer loop
      vertex -3.73269 -0.712049 9.5
      vertex -3.8 0 9.5
      vertex -3.77004 -0.476266 9.5
    endloop
  endfacet
  facet normal 0 0 1
    outer loop
      vertex -3.61401 -1.17426 9.5
      vertex -3.8 0 9.5
      vertex -3.68062 -0.945022 9.5
    endloop
  endfacet
  facet normal 0 0 1
    outer loop
      vertex -3.53315 -1.39887 9.5
      vertex -3.8 0 9.5
      vertex -3.61401 -1.17426 9.5
    endloop
  endfacet
  facet normal 0 0 1
    outer loop
      vertex -3.43834 -1.61796 9.5
      vertex -3.8 0 9.5
      vertex -3.53315 -1.39887 9.5
    endloop
  endfacet
  facet normal 0 0 1
    outer loop
      vertex -3.32997 -1.83066 9.5
      vertex -3.8 0 9.5
      vertex -3.43834 -1.61796 9.5
    endloop
  endfacet
  facet normal 0 0 1
    outer loop
      vertex -3.20845 -2.03614 9.5
      vertex -3.8 0 9.5
      vertex -3.32997 -1.83066 9.5
    endloop
  endfacet
  facet normal 0 0 1
    outer loop
      vertex -3.07427 -2.23358 9.5
      vertex -3.8 0 9.5
      vertex -3.20845 -2.03614 9.5
    endloop
  endfacet
  facet normal 0 0 1
    outer loop
      vertex -2.92795 -2.42221 9.5
      vertex -3.8 0 9.5
      vertex -3.07427 -2.23358 9.5
    endloop
  endfacet
  facet normal 0 0 1
    outer loop
      vertex -2.77008 -2.60128 9.5
      vertex -3.8 0 9.5
      vertex -2.92795 -2.42221 9.5
    endloop
  endfacet
  facet normal 0 0 1
    outer loop
      vertex -2.60128 -2.77008 9.5
      vertex -3.8 0 9.5
      vertex -2.77008 -2.60128 9.5
    endloop
  endfacet
  facet normal 0 0 1
    outer loop
      vertex -2.42221 -2.92795 9.5
      vertex -3.8 0 9.5
      vertex -2.60128 -2.77008 9.5
    endloop
  endfacet
  facet normal 0 0 1
    outer loop
      vertex -2.23358 -3.07427 9.5
      vertex -3.8 0 9.5
      vertex -2.42221 -2.92795 9.5
    endloop
  endfacet
  facet normal 0 0 1
    outer loop
      vertex -2.03614 -3.20845 9.5
      vertex -3.8 0 9.5
      vertex -2.23358 -3.07427 9.5
    endloop
  endfacet
  facet normal 0 0 1
    outer loop
      vertex -1.83066 -3.32997 9.5
      vertex -3.8 0 9.5
      vertex -2.03614 -3.20845 9.5
    endloop
  endfacet
  facet normal 0 0 1
    outer loop
      vertex -1.61796 -3.43834 9.5
      vertex -3.8 0 9.5
      vertex -1.83066 -3.32997 9.5
    endloop
  endfacet
  facet normal 0 0 1
    outer loop
      vertex -1.39887 -3.53315 9.5
      vertex -3.8 0 9.5
      vertex -1.61796 -3.43834 9.5
    endloop
  endfacet
  facet normal 0 0 1
    outer loop
      vertex -1.17426 -3.61401 9.5
      vertex -3.8 0 9.5
      vertex -1.39887 -3.53315 9.5
    endloop
  endfacet
  facet normal 0 0 1
    outer loop
      vertex -0.945022 -3.68062 9.5
      vertex -3.8 0 9.5
      vertex -1.17426 -3.61401 9.5
    endloop
  endfacet
  facet normal 0 0 1
    outer loop
      vertex -0.712049 -3.73269 9.5
      vertex -3.8 0 9.5
      vertex -0.945022 -3.68062 9.5
    endloop
  endfacet
  facet normal 0 0 1
    outer loop
      vertex -0.476266 -3.77004 9.5
      vertex -3.8 0 9.5
      vertex -0.712049 -3.73269 9.5
    endloop
  endfacet
  facet normal 0 0 1
    outer loop
      vertex -0.238604 -3.7925 9.5
      vertex -3.8 0 9.5
      vertex -0.476266 -3.77004 9.5
    endloop
  endfacet
  facet normal 0 0 1
    outer loop
      vertex 0 -3.8 9.5
      vertex -3.8 0 9.5
      vertex -0.238604 -3.7925 9.5
    endloop
  endfacet
  facet normal 0 0 1
    outer loop
      vertex 0.238604 -3.7925 9.5
      vertex -3.8 0 9.5
      vertex 0 -3.8 9.5
    endloop
  endfacet
  facet normal 0 0 1
    outer loop
      vertex 0.476266 -3.77004 9.5
      vertex -3.8 0 9.5
      vertex 0.238604 -3.7925 9.5
    endloop
  endfacet
  facet normal 0 0 1
    outer loop
      vertex 0.712049 -3.73269 9.5
      vertex -3.8 0 9.5
      vertex 0.476266 -3.77004 9.5
    endloop
  endfacet
  facet normal 0 0 1
    outer loop
      vertex 0.945022 -3.68062 9.5
      vertex -3.8 0 9.5
      vertex 0.712049 -3.73269 9.5
    endloop
  endfacet
  facet normal 0 0 1
    outer loop
      vertex 1.17426 -3.61401 9.5
      vertex -3.8 0 9.5
      vertex 0.945022 -3.68062 9.5
    endloop
  endfacet
  facet normal 0 0 1
    outer loop
      vertex 1.39887 -3.53315 9.5
      vertex -3.8 0 9.5
      vertex 1.17426 -3.61401 9.5
    endloop
  endfacet
  facet normal 0 0 1
    outer loop
      vertex 1.61796 -3.43834 9.5
      vertex -3.8 0 9.5
      vertex 1.39887 -3.53315 9.5
    endloop
  endfacet
  facet normal 0 0 1
    outer loop
      vertex 1.83066 -3.32997 9.5
      vertex -3.8 0 9.5
      vertex 1.61796 -3.43834 9.5
    endloop
  endfacet
  facet normal 0 0 1
    outer loop
      vertex 2.03614 -3.20845 9.5
      vertex -3.8 0 9.5
      vertex 1.83066 -3.32997 9.5
    endloop
  endfacet
  facet normal 0 0 1
    outer loop
      vertex 2.23358 -3.07427 9.5
      vertex -3.8 0 9.5
      vertex 2.03614 -3.20845 9.5
    endloop
  endfacet
  facet normal 0 0 1
    outer loop
      vertex 2.42221 -2.92795 9.5
      vertex -3.8 0 9.5
      vertex 2.23358 -3.07427 9.5
    endloop
  endfacet
  facet normal 0 0 1
    outer loop
      vertex 2.60128 -2.77008 9.5
      vertex -3.8 0 9.5
      vertex 2.42221 -2.92795 9.5
    endloop
  endfacet
  facet normal 0 0 1
    outer loop
      vertex 2.77008 -2.60128 9.5
      vertex -3.8 0 9.5
      vertex 2.60128 -2.77008 9.5
    endloop
  endfacet
  facet normal 0 0 1
    outer loop
      vertex 2.92795 -2.42221 9.5
      vertex -3.8 0 9.5
      vertex 2.77008 -2.60128 9.5
    endloop
  endfacet
  facet normal 0 0 1
    outer loop
      vertex 3.07427 -2.23358 9.5
      vertex -3.8 0 9.5
      vertex 2.92795 -2.42221 9.5
    endloop
  endfacet
  facet normal 0 0 1
    outer loop
      vertex 3.20845 -2.03614 9.5
      vertex -3.8 0 9.5
      vertex 3.07427 -2.23358 9.5
    endloop
  endfacet
  facet normal 0 0 1
    outer loop
      vertex 3.32997 -1.83066 9.5
      vertex -3.8 0 9.5
      vertex 3.20845 -2.03614 9.5
    endloop
  endfacet
  facet normal 0 0 1
    outer loop
      vertex 3.43834 -1.61796 9.5
      vertex -3.8 0 9.5
      vertex 3.32997 -1.83066 9.5
    endloop
  endfacet
  facet normal 0 0 1
    outer loop
      vertex 3.53315 -1.39887 9.5
      vertex -3.8 0 9.5
      vertex 3.43834 -1.61796 9.5
    endloop
  endfacet
  facet normal 0 0 1
    outer loop
      vertex 3.61401 -1.17426 9.5
      vertex -3.8 0 9.5
      vertex 3.53315 -1.39887 9.5
    endloop
  endfacet
  facet normal 0 0 1
    outer loop
      vertex 3.68062 -0.945022 9.5
      vertex -3.8 0 9.5
      vertex 3.61401 -1.17426 9.5
    endloop
  endfacet
  facet normal 0 0 1
    outer loop
      vertex 3.73269 -0.712049 9.5
      vertex -3.8 0 9.5
      vertex 3.68062 -0.945022 9.5
    endloop
  endfacet
  facet normal 0 0 1
    outer loop
      vertex 3.77004 -0.476266 9.5
      vertex -3.8 0 9.5
      vertex 3.73269 -0.712049 9.5
    endloop
  endfacet
  facet normal 0 0 1
    outer loop
      vertex 3.7925 -0.238604 9.5
      vertex -3.8 0 9.5
      vertex 3.77004 -0.476266 9.5
    endloop
  endfacet
  facet normal 0 0 1
    outer loop
      vertex 3.8 0 9.5
      vertex -3.8 0 9.5
      vertex 3.7925 -0.238604 9.5
    endloop
  endfacet
  facet normal 0 0 1
    outer loop
      vertex 3.7925 0.238604 9.5
      vertex -3.8 0 9.5
      vertex 3.8 0 9.5
    endloop
  endfacet
  facet normal 0 0 1
    outer loop
      vertex 3.77004 0.476266 9.5
      vertex -3.8 0 9.5
      vertex 3.7925 0.238604 9.5
    endloop
  endfacet
  facet normal 0 0 1
    outer loop
      vertex 3.73269 0.712049 9.5
      vertex -3.8 0 9.5
      vertex 3.77004 0.476266 9.5
    endloop
  endfacet
  facet normal 0 0 1
    outer loop
      vertex 3.68062 0.945022 9.5
      vertex -3.8 0 9.5
      vertex 3.73269 0.712049 9.5
    endloop
  endfacet
  facet normal 0 0 1
    outer loop
      vertex 3.61401 1.17426 9.5
      vertex -3.8 0 9.5
      vertex 3.68062 0.945022 9.5
    endloop
  endfacet
  facet normal 0 0 1
    outer loop
      vertex 3.53315 1.39887 9.5
      vertex -3.8 0 9.5
      vertex 3.61401 1.17426 9.5
    endloop
  endfacet
  facet normal 0 0 1
    outer loop
      vertex 3.43834 1.61796 9.5
      vertex -3.8 0 9.5
      vertex 3.53315 1.39887 9.5
    endloop
  endfacet
  facet normal 0 0 1
    outer loop
      vertex 3.32997 1.83066 9.5
      vertex -3.8 0 9.5
      vertex 3.43834 1.61796 9.5
    endloop
  endfacet
  facet normal 0 0 1
    outer loop
      vertex 3.20845 2.03614 9.5
      vertex -3.8 0 9.5
      vertex 3.32997 1.83066 9.5
    endloop
  endfacet
  facet normal 0 0 1
    outer loop
      vertex 3.07427 2.23358 9.5
      vertex -3.8 0 9.5
      vertex 3.20845 2.03614 9.5
    endloop
  endfacet
  facet normal 0 0 1
    outer loop
      vertex 2.92795 2.42221 9.5
      vertex -3.8 0 9.5
      vertex 3.07427 2.23358 9.5
    endloop
  endfacet
  facet normal 0 0 1
    outer loop
      vertex 2.77008 2.60128 9.5
      vertex -3.8 0 9.5
      vertex 2.92795 2.42221 9.5
    endloop
  endfacet
  facet normal 0 0 1
    outer loop
      vertex 2.60128 2.77008 9.5
      vertex -3.8 0 9.5
      vertex 2.77008 2.60128 9.5
    endloop
  endfacet
  facet normal 0 0 1
    outer loop
      vertex 2.42221 2.92795 9.5
      vertex -3.8 0 9.5
      vertex 2.60128 2.77008 9.5
    endloop
  endfacet
  facet normal 0 0 1
    outer loop
      vertex 2.23358 3.07427 9.5
      vertex -3.8 0 9.5
      vertex 2.42221 2.92795 9.5
    endloop
  endfacet
  facet normal 0 0 1
    outer loop
      vertex 2.03614 3.20845 9.5
      vertex -3.8 0 9.5
      vertex 2.23358 3.07427 9.5
    endloop
  endfacet
  facet normal 0 0 1
    outer loop
      vertex 1.83066 3.32997 9.5
      vertex -3.8 0 9.5
      vertex 2.03614 3.20845 9.5
    endloop
  endfacet
  facet normal 0 0 1
    outer loop
      vertex 1.61796 3.43834 9.5
      vertex -3.8 0 9.5
      vertex 1.83066 3.32997 9.5
    endloop
  endfacet
  facet normal 0 0 1
    outer loop
      vertex 1.39887 3.53315 9.5
      vertex -3.8 0 9.5
      vertex 1.61796 3.43834 9.5
    endloop
  endfacet
  facet normal 0 0 1
    outer loop
      vertex 1.17426 3.61401 9.5
      vertex -3.8 0 9.5
      vertex 1.39887 3.53315 9.5
    endloop
  endfacet
  facet normal 0 0 1
    outer loop
      vertex 0.945022 3.68062 9.5
      vertex -3.8 0 9.5
      vertex 1.17426 3.61401 9.5
    endloop
  endfacet
  facet normal 0 0 1
    outer loop
      vertex 0.712049 3.73269 9.5
      vertex -3.8 0 9.5
      vertex 0.945022 3.68062 9.5
    endloop
  endfacet
  facet normal 0 0 1
    outer loop
      vertex 0.476266 3.77004 9.5
      vertex -3.8 0 9.5
      vertex 0.712049 3.73269 9.5
    endloop
  endfacet
  facet normal 0 0 1
    outer loop
      vertex 0.238604 3.7925 9.5
      vertex -3.8 0 9.5
      vertex 0.476266 3.77004 9.5
    endloop
  endfacet
  facet normal 0 0 1
    outer loop
      vertex 0 3.8 9.5
      vertex -3.8 0 9.5
      vertex 0.238604 3.7925 9.5
    endloop
  endfacet
  facet normal 0 0 1
    outer loop
      vertex -0.238604 3.7925 9.5
      vertex -3.8 0 9.5
      vertex 0 3.8 9.5
    endloop
  endfacet
  facet normal 0 0 1
    outer loop
      vertex -0.476266 3.77004 9.5
      vertex -3.8 0 9.5
      vertex -0.238604 3.7925 9.5
    endloop
  endfacet
  facet normal 0 0 1
    outer loop
      vertex -0.712049 3.73269 9.5
      vertex -3.8 0 9.5
      vertex -0.476266 3.77004 9.5
    endloop
  endfacet
  facet normal 0 0 1
    outer loop
      vertex -0.945022 3.68062 9.5
      vertex -3.8 0 9.5
      vertex -0.712049 3.73269 9.5
    endloop
  endfacet
  facet normal 0 0 1
    outer loop
      vertex -1.17426 3.61401 9.5
      vertex -3.8 0 9.5
      vertex -0.945022 3.68062 9.5
    endloop
  endfacet
  facet normal 0 0 1
    outer loop
      vertex -1.39887 3.53315 9.5
      vertex -3.8 0 9.5
      vertex -1.17426 3.61401 9.5
    endloop
  endfacet
  facet normal 0 0 1
    outer loop
      vertex -1.61796 3.43834 9.5
      vertex -3.8 0 9.5
      vertex -1.39887 3.53315 9.5
    endloop
  endfacet
  facet normal 0 0 1
    outer loop
      vertex -1.83066 3.32997 9.5
      vertex -3.8 0 9.5
      vertex -1.61796 3.43834 9.5
    endloop
  endfacet
  facet normal 0 0 1
    outer loop
      vertex -2.03614 3.20845 9.5
      vertex -3.8 0 9.5
      vertex -1.83066 3.32997 9.5
    endloop
  endfacet
  facet normal 0 0 1
    outer loop
      vertex -2.23358 3.07427 9.5
      vertex -3.8 0 9.5
      vertex -2.03614 3.20845 9.5
    endloop
  endfacet
  facet normal 0 0 1
    outer loop
      vertex -2.42221 2.92795 9.5
      vertex -3.8 0 9.5
      vertex -2.23358 3.07427 9.5
    endloop
  endfacet
  facet normal 0 0 1
    outer loop
      vertex -2.60128 2.77008 9.5
      vertex -3.8 0 9.5
      vertex -2.42221 2.92795 9.5
    endloop
  endfacet
  facet normal 0 0 1
    outer loop
      vertex -2.77008 2.60128 9.5
      vertex -3.8 0 9.5
      vertex -2.60128 2.77008 9.5
    endloop
  endfacet
  facet normal 0 0 1
    outer loop
      vertex -2.92795 2.42221 9.5
      vertex -3.8 0 9.5
      vertex -2.77008 2.60128 9.5
    endloop
  endfacet
  facet normal 0 0 1
    outer loop
      vertex -3.07427 2.23358 9.5
      vertex -3.8 0 9.5
      vertex -2.92795 2.42221 9.5
    endloop
  endfacet
  facet normal 0 0 1
    outer loop
      vertex -3.20845 2.03614 9.5
      vertex -3.8 0 9.5
      vertex -3.07427 2.23358 9.5
    endloop
  endfacet
  facet normal 0 0 1
    outer loop
      vertex -3.32997 1.83066 9.5
      vertex -3.8 0 9.5
      vertex -3.20845 2.03614 9.5
    endloop
  endfacet
  facet normal 0 0 1
    outer loop
      vertex -3.43834 1.61796 9.5
      vertex -3.8 0 9.5
      vertex -3.32997 1.83066 9.5
    endloop
  endfacet
  facet normal 0 0 1
    outer loop
      vertex -3.53315 1.39887 9.5
      vertex -3.8 0 9.5
      vertex -3.43834 1.61796 9.5
    endloop
  endfacet
  facet normal 0 0 1
    outer loop
      vertex -3.61401 1.17426 9.5
      vertex -3.8 0 9.5
      vertex -3.53315 1.39887 9.5
    endloop
  endfacet
  facet normal 0 0 1
    outer loop
      vertex -3.68062 0.945022 9.5
      vertex -3.8 0 9.5
      vertex -3.61401 1.17426 9.5
    endloop
  endfacet
  facet normal 0 0 1
    outer loop
      vertex -3.73269 0.712049 9.5
      vertex -3.8 0 9.5
      vertex -3.68062 0.945022 9.5
    endloop
  endfacet
  facet normal 0 0 1
    outer loop
      vertex -3.77004 0.476266 9.5
      vertex -3.8 0 9.5
      vertex -3.73269 0.712049 9.5
    endloop
  endfacet
  facet normal 0 0 1
    outer loop
      vertex -3.7925 0.238604 9.5
      vertex -3.8 0 9.5
      vertex -3.77004 0.476266 9.5
    endloop
  endfacet
endsolid OpenSCAD_Model
