solid OpenSCAD_Model
  facet normal -1 0 0
    outer loop
      vertex -24 -24 -7.5
      vertex -24 -24 32.5
      vertex -24 24 -7.5
    endloop
  endfacet
  facet normal -1 0 0
    outer loop
      vertex -24 24 -7.5
      vertex -24 -24 32.5
      vertex -24 24 32.5
    endloop
  endfacet
  facet normal 0 -1 0
    outer loop
      vertex -24 -24 32.5
      vertex -24 -24 -7.5
      vertex 24 -24 -7.5
    endloop
  endfacet
  facet normal 0 -1 0
    outer loop
      vertex 24 -24 32.5
      vertex -24 -24 32.5
      vertex 24 -24 -7.5
    endloop
  endfacet
  facet normal 0 0 -1
    outer loop
      vertex -24 -24 -7.5
      vertex -24 24 -7.5
      vertex 24 -24 -7.5
    endloop
  endfacet
  facet normal 0 0 -1
    outer loop
      vertex 24 -24 -7.5
      vertex -24 24 -7.5
      vertex -15 24 -7.5
    endloop
  endfacet
  facet normal 0 0 -1
    outer loop
      vertex 24 -24 -7.5
      vertex -15 24 -7.5
      vertex -15 44 -7.5
    endloop
  endfacet
  facet normal 0 0 -1
    outer loop
      vertex 15 24 -7.5
      vertex -15 44 -7.5
      vertex 15 44 -7.5
    endloop
  endfacet
  facet normal 0 0 -1
    outer loop
      vertex 24 -24 -7.5
      vertex -15 44 -7.5
      vertex 15 24 -7.5
    endloop
  endfacet
  facet normal 0 0 -1
    outer loop
      vertex 24 24 -7.5
      vertex 24 -24 -7.5
      vertex 15 24 -7.5
    endloop
  endfacet
  facet normal 0 1 0
    outer loop
      vertex -24 24 -7.5
      vertex -24 24 32.5
      vertex -15 24 -7.5
    endloop
  endfacet
  facet normal 0 1 0
    outer loop
      vertex -15 24 17.5
      vertex -24 24 32.5
      vertex 24 24 32.5
    endloop
  endfacet
  facet normal 0 1 0
    outer loop
      vertex 15 24 -7.5
      vertex 24 24 32.5
      vertex 24 24 -7.5
    endloop
  endfacet
  facet normal 0 1 0
    outer loop
      vertex 15 24 17.5
      vertex 24 24 32.5
      vertex 15 24 -7.5
    endloop
  endfacet
  facet normal 0 1 0
    outer loop
      vertex -15 24 -7.5
      vertex -24 24 32.5
      vertex -15 24 17.5
    endloop
  endfacet
  facet normal 0 1 0
    outer loop
      vertex -15 24 17.5
      vertex 24 24 32.5
      vertex 15 24 17.5
    endloop
  endfacet
  facet normal 0 0 1
    outer loop
      vertex -20.55 -20.55 32.5
      vertex -24 -24 32.5
      vertex 24 -24 32.5
    endloop
  endfacet
  facet normal 0 0 1
    outer loop
      vertex -20.55 20.55 32.5
      vertex -24 24 32.5
      vertex -20.55 -20.55 32.5
    endloop
  endfacet
  facet normal 0 0 1
    outer loop
      vertex 20.55 -20.55 32.5
      vertex -20.55 -20.55 32.5
      vertex 24 -24 32.5
    endloop
  endfacet
  facet normal 0 0 1
    outer loop
      vertex -24 24 32.5
      vertex -24 -24 32.5
      vertex -20.55 -20.55 32.5
    endloop
  endfacet
  facet normal 0 0 1
    outer loop
      vertex 24 24 32.5
      vertex -24 24 32.5
      vertex -20.55 20.55 32.5
    endloop
  endfacet
  facet normal 0 0 1
    outer loop
      vertex 24 24 32.5
      vertex 20.55 20.55 32.5
      vertex 24 -24 32.5
    endloop
  endfacet
  facet normal 0 0 1
    outer loop
      vertex 24 24 32.5
      vertex -20.55 20.55 32.5
      vertex 20.55 20.55 32.5
    endloop
  endfacet
  facet normal 0 0 1
    outer loop
      vertex 20.55 20.55 32.5
      vertex 20.55 -20.55 32.5
      vertex 24 -24 32.5
    endloop
  endfacet
  facet normal 1 0 0
    outer loop
      vertex 24 -24 32.5
      vertex 24 -24 -7.5
      vertex 24 24 -7.5
    endloop
  endfacet
  facet normal 1 0 0
    outer loop
      vertex 24 24 32.5
      vertex 24 -24 32.5
      vertex 24 24 -7.5
    endloop
  endfacet
  facet normal 1 0 0
    outer loop
      vertex 15 33.564 0.535484
      vertex 15 24 -7.5
      vertex 15 44 -7.5
    endloop
  endfacet
  facet normal 1 0 0
    outer loop
      vertex 15 37.0717 6.91601
      vertex 15 37.184 6.65656
      vertex 15 44 -7.5
    endloop
  endfacet
  facet normal 1 0 0
    outer loop
      vertex 15 24 17.5
      vertex 15 24 -7.5
      vertex 15 28.5089 4.71744
    endloop
  endfacet
  facet normal 1 0 0
    outer loop
      vertex 15 33.8432 0.579707
      vertex 15 33.564 0.535484
      vertex 15 44 -7.5
    endloop
  endfacet
  facet normal 1 0 0
    outer loop
      vertex 15 24 17.5
      vertex 15 28.5089 4.71744
      vertex 15 28.5 5
    endloop
  endfacet
  facet normal 1 0 0
    outer loop
      vertex 15 34.1191 0.641376
      vertex 15 33.8432 0.579707
      vertex 15 44 -7.5
    endloop
  endfacet
  facet normal 1 0 0
    outer loop
      vertex 15 24 17.5
      vertex 15 28.5 5
      vertex 15 28.5089 5.28256
    endloop
  endfacet
  facet normal 1 0 0
    outer loop
      vertex 15 24 17.5
      vertex 15 28.5089 5.28256
      vertex 15 28.5355 5.564
    endloop
  endfacet
  facet normal 1 0 0
    outer loop
      vertex 15 24 17.5
      vertex 15 28.5355 5.564
      vertex 15 28.5797 5.84322
    endloop
  endfacet
  facet normal 1 0 0
    outer loop
      vertex 15 34.3906 0.720246
      vertex 15 34.1191 0.641376
      vertex 15 44 -7.5
    endloop
  endfacet
  facet normal 1 0 0
    outer loop
      vertex 15 24 17.5
      vertex 15 28.5797 5.84322
      vertex 15 28.6414 6.1191
    endloop
  endfacet
  facet normal 1 0 0
    outer loop
      vertex 15 24 17.5
      vertex 15 28.6414 6.1191
      vertex 15 28.7202 6.39058
    endloop
  endfacet
  facet normal 1 0 0
    outer loop
      vertex 15 34.916 0.928278
      vertex 15 34.6566 0.816006
      vertex 15 44 -7.5
    endloop
  endfacet
  facet normal 1 0 0
    outer loop
      vertex 15 24 17.5
      vertex 15 28.7202 6.39058
      vertex 15 28.816 6.65656
    endloop
  endfacet
  facet normal 1 0 0
    outer loop
      vertex 15 34.6566 0.816006
      vertex 15 34.3906 0.720246
      vertex 15 44 -7.5
    endloop
  endfacet
  facet normal 1 0 0
    outer loop
      vertex 15 24 17.5
      vertex 15 28.816 6.65656
      vertex 15 28.9283 6.91601
    endloop
  endfacet
  facet normal 1 0 0
    outer loop
      vertex 15 24 17.5
      vertex 15 28.9283 6.91601
      vertex 15 29.0566 7.16789
    endloop
  endfacet
  facet normal 1 0 0
    outer loop
      vertex 15 35.1679 1.05662
      vertex 15 34.916 0.928278
      vertex 15 44 -7.5
    endloop
  endfacet
  facet normal 1 0 0
    outer loop
      vertex 15 24 17.5
      vertex 15 29.0566 7.16789
      vertex 15 29.2005 7.41122
    endloop
  endfacet
  facet normal 1 0 0
    outer loop
      vertex 15 24 17.5
      vertex 15 29.2005 7.41122
      vertex 15 29.3594 7.64503
    endloop
  endfacet
  facet normal 1 0 0
    outer loop
      vertex 15 35.645 1.35942
      vertex 15 35.4112 1.20052
      vertex 15 44 -7.5
    endloop
  endfacet
  facet normal 1 0 0
    outer loop
      vertex 15 24 17.5
      vertex 15 29.3594 7.64503
      vertex 15 29.5327 7.86841
    endloop
  endfacet
  facet normal 1 0 0
    outer loop
      vertex 15 35.4112 1.20052
      vertex 15 35.1679 1.05662
      vertex 15 44 -7.5
    endloop
  endfacet
  facet normal 1 0 0
    outer loop
      vertex 15 24 17.5
      vertex 15 29.5327 7.86841
      vertex 15 29.7196 8.08046
    endloop
  endfacet
  facet normal 1 0 0
    outer loop
      vertex 15 24 17.5
      vertex 15 29.7196 8.08046
      vertex 15 29.9195 8.28036
    endloop
  endfacet
  facet normal 1 0 0
    outer loop
      vertex 15 35.8684 1.53269
      vertex 15 35.645 1.35942
      vertex 15 44 -7.5
    endloop
  endfacet
  facet normal 1 0 0
    outer loop
      vertex 15 24 17.5
      vertex 15 29.9195 8.28036
      vertex 15 30.1316 8.46731
    endloop
  endfacet
  facet normal 1 0 0
    outer loop
      vertex 15 24 17.5
      vertex 15 30.1316 8.46731
      vertex 15 30.355 8.64058
    endloop
  endfacet
  facet normal 1 0 0
    outer loop
      vertex 15 36.0805 1.71964
      vertex 15 35.8684 1.53269
      vertex 15 44 -7.5
    endloop
  endfacet
  facet normal 1 0 0
    outer loop
      vertex 15 24 17.5
      vertex 15 30.355 8.64058
      vertex 15 30.5888 8.79948
    endloop
  endfacet
  facet normal 1 0 0
    outer loop
      vertex 15 37.4911 5.28256
      vertex 15 37.5 5
      vertex 15 44 -7.5
    endloop
  endfacet
  facet normal 1 0 0
    outer loop
      vertex 15 24 17.5
      vertex 15 30.5888 8.79948
      vertex 15 30.8321 8.94338
    endloop
  endfacet
  facet normal 1 0 0
    outer loop
      vertex 15 36.4673 2.13159
      vertex 15 36.2804 1.91954
      vertex 15 44 -7.5
    endloop
  endfacet
  facet normal 1 0 0
    outer loop
      vertex 15 44 17.5
      vertex 15 24 17.5
      vertex 15 31.084 9.07172
    endloop
  endfacet
  facet normal 1 0 0
    outer loop
      vertex 15 36.2804 1.91954
      vertex 15 36.0805 1.71964
      vertex 15 44 -7.5
    endloop
  endfacet
  facet normal 1 0 0
    outer loop
      vertex 15 44 17.5
      vertex 15 31.084 9.07172
      vertex 15 31.3434 9.18399
    endloop
  endfacet
  facet normal 1 0 0
    outer loop
      vertex 15 44 17.5
      vertex 15 31.3434 9.18399
      vertex 15 31.6094 9.27975
    endloop
  endfacet
  facet normal 1 0 0
    outer loop
      vertex 15 36.6406 2.35497
      vertex 15 36.4673 2.13159
      vertex 15 44 -7.5
    endloop
  endfacet
  facet normal 1 0 0
    outer loop
      vertex 15 44 17.5
      vertex 15 31.6094 9.27975
      vertex 15 31.8809 9.35862
    endloop
  endfacet
  facet normal 1 0 0
    outer loop
      vertex 15 44 17.5
      vertex 15 31.8809 9.35862
      vertex 15 32.1568 9.42029
    endloop
  endfacet
  facet normal 1 0 0
    outer loop
      vertex 15 36.9434 2.83211
      vertex 15 36.7995 2.58878
      vertex 15 44 -7.5
    endloop
  endfacet
  facet normal 1 0 0
    outer loop
      vertex 15 44 17.5
      vertex 15 32.1568 9.42029
      vertex 15 32.436 9.46452
    endloop
  endfacet
  facet normal 1 0 0
    outer loop
      vertex 15 36.7995 2.58878
      vertex 15 36.6406 2.35497
      vertex 15 44 -7.5
    endloop
  endfacet
  facet normal 1 0 0
    outer loop
      vertex 15 44 17.5
      vertex 15 32.436 9.46452
      vertex 15 32.7174 9.49112
    endloop
  endfacet
  facet normal 1 0 0
    outer loop
      vertex 15 44 17.5
      vertex 15 32.7174 9.49112
      vertex 15 33 9.5
    endloop
  endfacet
  facet normal 1 0 0
    outer loop
      vertex 15 37.0717 3.08399
      vertex 15 36.9434 2.83211
      vertex 15 44 -7.5
    endloop
  endfacet
  facet normal 1 0 0
    outer loop
      vertex 15 44 17.5
      vertex 15 33 9.5
      vertex 15 33.2826 9.49112
    endloop
  endfacet
  facet normal 1 0 0
    outer loop
      vertex 15 44 17.5
      vertex 15 33.2826 9.49112
      vertex 15 33.564 9.46452
    endloop
  endfacet
  facet normal 1 0 0
    outer loop
      vertex 15 37.2798 3.60942
      vertex 15 37.184 3.34344
      vertex 15 44 -7.5
    endloop
  endfacet
  facet normal 1 0 0
    outer loop
      vertex 15 44 17.5
      vertex 15 33.564 9.46452
      vertex 15 33.8432 9.42029
    endloop
  endfacet
  facet normal 1 0 0
    outer loop
      vertex 15 37.184 3.34344
      vertex 15 37.0717 3.08399
      vertex 15 44 -7.5
    endloop
  endfacet
  facet normal 1 0 0
    outer loop
      vertex 15 44 17.5
      vertex 15 33.8432 9.42029
      vertex 15 34.1191 9.35862
    endloop
  endfacet
  facet normal 1 0 0
    outer loop
      vertex 15 44 17.5
      vertex 15 34.1191 9.35862
      vertex 15 34.3906 9.27975
    endloop
  endfacet
  facet normal 1 0 0
    outer loop
      vertex 15 37.4203 4.15678
      vertex 15 37.3586 3.8809
      vertex 15 44 -7.5
    endloop
  endfacet
  facet normal 1 0 0
    outer loop
      vertex 15 44 17.5
      vertex 15 34.3906 9.27975
      vertex 15 34.6566 9.18399
    endloop
  endfacet
  facet normal 1 0 0
    outer loop
      vertex 15 37.3586 3.8809
      vertex 15 37.2798 3.60942
      vertex 15 44 -7.5
    endloop
  endfacet
  facet normal 1 0 0
    outer loop
      vertex 15 44 17.5
      vertex 15 34.6566 9.18399
      vertex 15 34.916 9.07172
    endloop
  endfacet
  facet normal 1 0 0
    outer loop
      vertex 15 44 17.5
      vertex 15 34.916 9.07172
      vertex 15 35.1679 8.94338
    endloop
  endfacet
  facet normal 1 0 0
    outer loop
      vertex 15 37.4911 4.71744
      vertex 15 37.4645 4.436
      vertex 15 44 -7.5
    endloop
  endfacet
  facet normal 1 0 0
    outer loop
      vertex 15 44 17.5
      vertex 15 35.1679 8.94338
      vertex 15 35.4112 8.79948
    endloop
  endfacet
  facet normal 1 0 0
    outer loop
      vertex 15 37.5 5
      vertex 15 37.4911 4.71744
      vertex 15 44 -7.5
    endloop
  endfacet
  facet normal 1 0 0
    outer loop
      vertex 15 44 17.5
      vertex 15 35.4112 8.79948
      vertex 15 35.645 8.64058
    endloop
  endfacet
  facet normal 1 0 0
    outer loop
      vertex 15 37.4645 4.436
      vertex 15 37.4203 4.15678
      vertex 15 44 -7.5
    endloop
  endfacet
  facet normal 1 0 0
    outer loop
      vertex 15 44 17.5
      vertex 15 35.645 8.64058
      vertex 15 35.8684 8.46731
    endloop
  endfacet
  facet normal 1 0 0
    outer loop
      vertex 15 44 17.5
      vertex 15 35.8684 8.46731
      vertex 15 36.0805 8.28036
    endloop
  endfacet
  facet normal 1 0 0
    outer loop
      vertex 15 37.4645 5.564
      vertex 15 37.4911 5.28256
      vertex 15 44 -7.5
    endloop
  endfacet
  facet normal 1 0 0
    outer loop
      vertex 15 44 17.5
      vertex 15 36.0805 8.28036
      vertex 15 36.2804 8.08046
    endloop
  endfacet
  facet normal 1 0 0
    outer loop
      vertex 15 37.4203 5.84322
      vertex 15 37.4645 5.564
      vertex 15 44 -7.5
    endloop
  endfacet
  facet normal 1 0 0
    outer loop
      vertex 15 44 17.5
      vertex 15 36.2804 8.08046
      vertex 15 36.4673 7.86841
    endloop
  endfacet
  facet normal 1 0 0
    outer loop
      vertex 15 37.3586 6.1191
      vertex 15 37.4203 5.84322
      vertex 15 44 -7.5
    endloop
  endfacet
  facet normal 1 0 0
    outer loop
      vertex 15 44 17.5
      vertex 15 36.4673 7.86841
      vertex 15 36.6406 7.64503
    endloop
  endfacet
  facet normal 1 0 0
    outer loop
      vertex 15 37.2798 6.39058
      vertex 15 37.3586 6.1191
      vertex 15 44 -7.5
    endloop
  endfacet
  facet normal 1 0 0
    outer loop
      vertex 15 44 17.5
      vertex 15 36.6406 7.64503
      vertex 15 36.7995 7.41122
    endloop
  endfacet
  facet normal 1 0 0
    outer loop
      vertex 15 37.184 6.65656
      vertex 15 37.2798 6.39058
      vertex 15 44 -7.5
    endloop
  endfacet
  facet normal 1 0 0
    outer loop
      vertex 15 44 17.5
      vertex 15 36.7995 7.41122
      vertex 15 36.9434 7.16789
    endloop
  endfacet
  facet normal 1 0 0
    outer loop
      vertex 15 44 17.5
      vertex 15 37.0717 6.91601
      vertex 15 44 -7.5
    endloop
  endfacet
  facet normal 1 0 0
    outer loop
      vertex 15 44 17.5
      vertex 15 36.9434 7.16789
      vertex 15 37.0717 6.91601
    endloop
  endfacet
  facet normal 1 0 0
    outer loop
      vertex 15 33.2826 0.50888
      vertex 15 24 -7.5
      vertex 15 33.564 0.535484
    endloop
  endfacet
  facet normal 1 0 0
    outer loop
      vertex 15 33 0.5
      vertex 15 24 -7.5
      vertex 15 33.2826 0.50888
    endloop
  endfacet
  facet normal 1 0 0
    outer loop
      vertex 15 32.7174 0.50888
      vertex 15 24 -7.5
      vertex 15 33 0.5
    endloop
  endfacet
  facet normal 1 0 0
    outer loop
      vertex 15 32.436 0.535484
      vertex 15 24 -7.5
      vertex 15 32.7174 0.50888
    endloop
  endfacet
  facet normal 1 0 0
    outer loop
      vertex 15 32.1568 0.579707
      vertex 15 24 -7.5
      vertex 15 32.436 0.535484
    endloop
  endfacet
  facet normal 1 0 0
    outer loop
      vertex 15 31.8809 0.641376
      vertex 15 24 -7.5
      vertex 15 32.1568 0.579707
    endloop
  endfacet
  facet normal 1 0 0
    outer loop
      vertex 15 31.6094 0.720246
      vertex 15 24 -7.5
      vertex 15 31.8809 0.641376
    endloop
  endfacet
  facet normal 1 0 0
    outer loop
      vertex 15 31.3434 0.816006
      vertex 15 24 -7.5
      vertex 15 31.6094 0.720246
    endloop
  endfacet
  facet normal 1 0 0
    outer loop
      vertex 15 31.084 0.928278
      vertex 15 24 -7.5
      vertex 15 31.3434 0.816006
    endloop
  endfacet
  facet normal 1 0 0
    outer loop
      vertex 15 30.8321 1.05662
      vertex 15 24 -7.5
      vertex 15 31.084 0.928278
    endloop
  endfacet
  facet normal 1 0 0
    outer loop
      vertex 15 30.5888 1.20052
      vertex 15 24 -7.5
      vertex 15 30.8321 1.05662
    endloop
  endfacet
  facet normal 1 0 0
    outer loop
      vertex 15 30.355 1.35942
      vertex 15 24 -7.5
      vertex 15 30.5888 1.20052
    endloop
  endfacet
  facet normal 1 0 0
    outer loop
      vertex 15 30.1316 1.53269
      vertex 15 24 -7.5
      vertex 15 30.355 1.35942
    endloop
  endfacet
  facet normal 1 0 0
    outer loop
      vertex 15 29.9195 1.71964
      vertex 15 24 -7.5
      vertex 15 30.1316 1.53269
    endloop
  endfacet
  facet normal 1 0 0
    outer loop
      vertex 15 29.7196 1.91954
      vertex 15 24 -7.5
      vertex 15 29.9195 1.71964
    endloop
  endfacet
  facet normal 1 0 0
    outer loop
      vertex 15 29.5327 2.13159
      vertex 15 24 -7.5
      vertex 15 29.7196 1.91954
    endloop
  endfacet
  facet normal 1 0 0
    outer loop
      vertex 15 29.3594 2.35497
      vertex 15 24 -7.5
      vertex 15 29.5327 2.13159
    endloop
  endfacet
  facet normal 1 0 0
    outer loop
      vertex 15 29.2005 2.58878
      vertex 15 24 -7.5
      vertex 15 29.3594 2.35497
    endloop
  endfacet
  facet normal 1 0 0
    outer loop
      vertex 15 29.0566 2.83211
      vertex 15 24 -7.5
      vertex 15 29.2005 2.58878
    endloop
  endfacet
  facet normal 1 0 0
    outer loop
      vertex 15 28.9283 3.08399
      vertex 15 24 -7.5
      vertex 15 29.0566 2.83211
    endloop
  endfacet
  facet normal 1 0 0
    outer loop
      vertex 15 28.816 3.34344
      vertex 15 24 -7.5
      vertex 15 28.9283 3.08399
    endloop
  endfacet
  facet normal 1 0 0
    outer loop
      vertex 15 28.7202 3.60942
      vertex 15 24 -7.5
      vertex 15 28.816 3.34344
    endloop
  endfacet
  facet normal 1 0 0
    outer loop
      vertex 15 28.6414 3.8809
      vertex 15 24 -7.5
      vertex 15 28.7202 3.60942
    endloop
  endfacet
  facet normal 1 0 0
    outer loop
      vertex 15 28.5797 4.15678
      vertex 15 24 -7.5
      vertex 15 28.6414 3.8809
    endloop
  endfacet
  facet normal 1 0 0
    outer loop
      vertex 15 28.5355 4.436
      vertex 15 24 -7.5
      vertex 15 28.5797 4.15678
    endloop
  endfacet
  facet normal 1 0 0
    outer loop
      vertex 15 28.5089 4.71744
      vertex 15 24 -7.5
      vertex 15 28.5355 4.436
    endloop
  endfacet
  facet normal 1 0 0
    outer loop
      vertex 15 30.8321 8.94338
      vertex 15 31.084 9.07172
      vertex 15 24 17.5
    endloop
  endfacet
  facet normal 0 1 0
    outer loop
      vertex -15 44 -7.5
      vertex -15 44 17.5
      vertex 15 44 -7.5
    endloop
  endfacet
  facet normal 0 1 0
    outer loop
      vertex 15 44 -7.5
      vertex -15 44 17.5
      vertex 15 44 17.5
    endloop
  endfacet
  facet normal -1 0 0
    outer loop
      vertex -15 35.645 8.64058
      vertex -15 24 17.5
      vertex -15 44 17.5
    endloop
  endfacet
  facet normal -1 0 0
    outer loop
      vertex -15 24 -7.5
      vertex -15 24 17.5
      vertex -15 28.5 5
    endloop
  endfacet
  facet normal -1 0 0
    outer loop
      vertex -15 30.5888 8.79948
      vertex -15 24 17.5
      vertex -15 30.8321 8.94338
    endloop
  endfacet
  facet normal -1 0 0
    outer loop
      vertex -15 24 -7.5
      vertex -15 28.5 5
      vertex -15 28.5089 4.71744
    endloop
  endfacet
  facet normal -1 0 0
    outer loop
      vertex -15 24 -7.5
      vertex -15 28.5089 4.71744
      vertex -15 28.5355 4.436
    endloop
  endfacet
  facet normal -1 0 0
    outer loop
      vertex -15 24 -7.5
      vertex -15 28.5355 4.436
      vertex -15 28.5797 4.15678
    endloop
  endfacet
  facet normal -1 0 0
    outer loop
      vertex -15 24 -7.5
      vertex -15 28.5797 4.15678
      vertex -15 28.6414 3.8809
    endloop
  endfacet
  facet normal -1 0 0
    outer loop
      vertex -15 24 -7.5
      vertex -15 28.6414 3.8809
      vertex -15 28.7202 3.60942
    endloop
  endfacet
  facet normal -1 0 0
    outer loop
      vertex -15 24 -7.5
      vertex -15 28.7202 3.60942
      vertex -15 28.816 3.34344
    endloop
  endfacet
  facet normal -1 0 0
    outer loop
      vertex -15 24 -7.5
      vertex -15 28.816 3.34344
      vertex -15 28.9283 3.08399
    endloop
  endfacet
  facet normal -1 0 0
    outer loop
      vertex -15 24 -7.5
      vertex -15 28.9283 3.08399
      vertex -15 29.0566 2.83211
    endloop
  endfacet
  facet normal -1 0 0
    outer loop
      vertex -15 24 -7.5
      vertex -15 29.0566 2.83211
      vertex -15 29.2005 2.58878
    endloop
  endfacet
  facet normal -1 0 0
    outer loop
      vertex -15 24 -7.5
      vertex -15 29.2005 2.58878
      vertex -15 29.3594 2.35497
    endloop
  endfacet
  facet normal -1 0 0
    outer loop
      vertex -15 24 -7.5
      vertex -15 29.3594 2.35497
      vertex -15 29.5327 2.13159
    endloop
  endfacet
  facet normal -1 0 0
    outer loop
      vertex -15 24 -7.5
      vertex -15 29.5327 2.13159
      vertex -15 29.7196 1.91954
    endloop
  endfacet
  facet normal -1 0 0
    outer loop
      vertex -15 24 -7.5
      vertex -15 29.7196 1.91954
      vertex -15 29.9195 1.71964
    endloop
  endfacet
  facet normal -1 0 0
    outer loop
      vertex -15 24 -7.5
      vertex -15 29.9195 1.71964
      vertex -15 30.1316 1.53269
    endloop
  endfacet
  facet normal -1 0 0
    outer loop
      vertex -15 24 -7.5
      vertex -15 30.1316 1.53269
      vertex -15 30.355 1.35942
    endloop
  endfacet
  facet normal -1 0 0
    outer loop
      vertex -15 24 -7.5
      vertex -15 30.355 1.35942
      vertex -15 30.5888 1.20052
    endloop
  endfacet
  facet normal -1 0 0
    outer loop
      vertex -15 24 -7.5
      vertex -15 30.5888 1.20052
      vertex -15 44 -7.5
    endloop
  endfacet
  facet normal -1 0 0
    outer loop
      vertex -15 31.084 0.928278
      vertex -15 44 -7.5
      vertex -15 30.8321 1.05662
    endloop
  endfacet
  facet normal -1 0 0
    outer loop
      vertex -15 31.3434 0.816006
      vertex -15 44 -7.5
      vertex -15 31.084 0.928278
    endloop
  endfacet
  facet normal -1 0 0
    outer loop
      vertex -15 31.6094 0.720246
      vertex -15 44 -7.5
      vertex -15 31.3434 0.816006
    endloop
  endfacet
  facet normal -1 0 0
    outer loop
      vertex -15 31.8809 0.641376
      vertex -15 44 -7.5
      vertex -15 31.6094 0.720246
    endloop
  endfacet
  facet normal -1 0 0
    outer loop
      vertex -15 32.1568 0.579707
      vertex -15 44 -7.5
      vertex -15 31.8809 0.641376
    endloop
  endfacet
  facet normal -1 0 0
    outer loop
      vertex -15 32.436 0.535484
      vertex -15 44 -7.5
      vertex -15 32.1568 0.579707
    endloop
  endfacet
  facet normal -1 0 0
    outer loop
      vertex -15 32.7174 0.50888
      vertex -15 44 -7.5
      vertex -15 32.436 0.535484
    endloop
  endfacet
  facet normal -1 0 0
    outer loop
      vertex -15 33 0.5
      vertex -15 44 -7.5
      vertex -15 32.7174 0.50888
    endloop
  endfacet
  facet normal -1 0 0
    outer loop
      vertex -15 33.2826 0.50888
      vertex -15 44 -7.5
      vertex -15 33 0.5
    endloop
  endfacet
  facet normal -1 0 0
    outer loop
      vertex -15 33.564 0.535484
      vertex -15 44 -7.5
      vertex -15 33.2826 0.50888
    endloop
  endfacet
  facet normal -1 0 0
    outer loop
      vertex -15 33.8432 0.579707
      vertex -15 44 -7.5
      vertex -15 33.564 0.535484
    endloop
  endfacet
  facet normal -1 0 0
    outer loop
      vertex -15 34.1191 0.641376
      vertex -15 44 -7.5
      vertex -15 33.8432 0.579707
    endloop
  endfacet
  facet normal -1 0 0
    outer loop
      vertex -15 36.4673 2.13159
      vertex -15 44 -7.5
      vertex -15 36.2804 1.91954
    endloop
  endfacet
  facet normal -1 0 0
    outer loop
      vertex -15 29.5327 7.86841
      vertex -15 24 17.5
      vertex -15 29.7196 8.08046
    endloop
  endfacet
  facet normal -1 0 0
    outer loop
      vertex -15 34.1191 0.641376
      vertex -15 34.3906 0.720246
      vertex -15 44 -7.5
    endloop
  endfacet
  facet normal -1 0 0
    outer loop
      vertex -15 34.3906 0.720246
      vertex -15 34.6566 0.816006
      vertex -15 44 -7.5
    endloop
  endfacet
  facet normal -1 0 0
    outer loop
      vertex -15 29.7196 8.08046
      vertex -15 24 17.5
      vertex -15 29.9195 8.28036
    endloop
  endfacet
  facet normal -1 0 0
    outer loop
      vertex -15 34.6566 0.816006
      vertex -15 34.916 0.928278
      vertex -15 44 -7.5
    endloop
  endfacet
  facet normal -1 0 0
    outer loop
      vertex -15 29.9195 8.28036
      vertex -15 24 17.5
      vertex -15 30.1316 8.46731
    endloop
  endfacet
  facet normal -1 0 0
    outer loop
      vertex -15 34.916 0.928278
      vertex -15 35.1679 1.05662
      vertex -15 44 -7.5
    endloop
  endfacet
  facet normal -1 0 0
    outer loop
      vertex -15 35.1679 1.05662
      vertex -15 35.4112 1.20052
      vertex -15 44 -7.5
    endloop
  endfacet
  facet normal -1 0 0
    outer loop
      vertex -15 30.1316 8.46731
      vertex -15 24 17.5
      vertex -15 30.355 8.64058
    endloop
  endfacet
  facet normal -1 0 0
    outer loop
      vertex -15 35.4112 1.20052
      vertex -15 35.645 1.35942
      vertex -15 44 -7.5
    endloop
  endfacet
  facet normal -1 0 0
    outer loop
      vertex -15 35.645 1.35942
      vertex -15 35.8684 1.53269
      vertex -15 44 -7.5
    endloop
  endfacet
  facet normal -1 0 0
    outer loop
      vertex -15 30.355 8.64058
      vertex -15 24 17.5
      vertex -15 30.5888 8.79948
    endloop
  endfacet
  facet normal -1 0 0
    outer loop
      vertex -15 35.8684 1.53269
      vertex -15 36.0805 1.71964
      vertex -15 44 -7.5
    endloop
  endfacet
  facet normal -1 0 0
    outer loop
      vertex -15 36.0805 1.71964
      vertex -15 36.2804 1.91954
      vertex -15 44 -7.5
    endloop
  endfacet
  facet normal -1 0 0
    outer loop
      vertex -15 37.184 3.34344
      vertex -15 44 17.5
      vertex -15 37.0717 3.08399
    endloop
  endfacet
  facet normal -1 0 0
    outer loop
      vertex -15 44 -7.5
      vertex -15 36.4673 2.13159
      vertex -15 36.6406 2.35497
    endloop
  endfacet
  facet normal -1 0 0
    outer loop
      vertex -15 44 -7.5
      vertex -15 36.6406 2.35497
      vertex -15 36.7995 2.58878
    endloop
  endfacet
  facet normal -1 0 0
    outer loop
      vertex -15 44 -7.5
      vertex -15 36.7995 2.58878
      vertex -15 36.9434 2.83211
    endloop
  endfacet
  facet normal -1 0 0
    outer loop
      vertex -15 44 -7.5
      vertex -15 36.9434 2.83211
      vertex -15 37.0717 3.08399
    endloop
  endfacet
  facet normal -1 0 0
    outer loop
      vertex -15 44 -7.5
      vertex -15 37.0717 3.08399
      vertex -15 44 17.5
    endloop
  endfacet
  facet normal -1 0 0
    outer loop
      vertex -15 37.2798 3.60942
      vertex -15 44 17.5
      vertex -15 37.184 3.34344
    endloop
  endfacet
  facet normal -1 0 0
    outer loop
      vertex -15 37.3586 3.8809
      vertex -15 44 17.5
      vertex -15 37.2798 3.60942
    endloop
  endfacet
  facet normal -1 0 0
    outer loop
      vertex -15 37.4203 4.15678
      vertex -15 44 17.5
      vertex -15 37.3586 3.8809
    endloop
  endfacet
  facet normal -1 0 0
    outer loop
      vertex -15 30.8321 8.94338
      vertex -15 24 17.5
      vertex -15 31.084 9.07172
    endloop
  endfacet
  facet normal -1 0 0
    outer loop
      vertex -15 35.4112 8.79948
      vertex -15 24 17.5
      vertex -15 35.645 8.64058
    endloop
  endfacet
  facet normal -1 0 0
    outer loop
      vertex -15 31.8809 9.35862
      vertex -15 24 17.5
      vertex -15 32.1568 9.42029
    endloop
  endfacet
  facet normal -1 0 0
    outer loop
      vertex -15 37.4203 4.15678
      vertex -15 37.4645 4.436
      vertex -15 44 17.5
    endloop
  endfacet
  facet normal -1 0 0
    outer loop
      vertex -15 32.1568 9.42029
      vertex -15 24 17.5
      vertex -15 32.436 9.46452
    endloop
  endfacet
  facet normal -1 0 0
    outer loop
      vertex -15 37.4645 4.436
      vertex -15 37.4911 4.71744
      vertex -15 44 17.5
    endloop
  endfacet
  facet normal -1 0 0
    outer loop
      vertex -15 37.4911 4.71744
      vertex -15 37.5 5
      vertex -15 44 17.5
    endloop
  endfacet
  facet normal -1 0 0
    outer loop
      vertex -15 32.436 9.46452
      vertex -15 24 17.5
      vertex -15 32.7174 9.49112
    endloop
  endfacet
  facet normal -1 0 0
    outer loop
      vertex -15 37.5 5
      vertex -15 37.4911 5.28256
      vertex -15 44 17.5
    endloop
  endfacet
  facet normal -1 0 0
    outer loop
      vertex -15 32.7174 9.49112
      vertex -15 24 17.5
      vertex -15 33 9.5
    endloop
  endfacet
  facet normal -1 0 0
    outer loop
      vertex -15 37.4911 5.28256
      vertex -15 37.4645 5.564
      vertex -15 44 17.5
    endloop
  endfacet
  facet normal -1 0 0
    outer loop
      vertex -15 37.4645 5.564
      vertex -15 37.4203 5.84322
      vertex -15 44 17.5
    endloop
  endfacet
  facet normal -1 0 0
    outer loop
      vertex -15 33 9.5
      vertex -15 24 17.5
      vertex -15 33.2826 9.49112
    endloop
  endfacet
  facet normal -1 0 0
    outer loop
      vertex -15 37.4203 5.84322
      vertex -15 37.3586 6.1191
      vertex -15 44 17.5
    endloop
  endfacet
  facet normal -1 0 0
    outer loop
      vertex -15 33.2826 9.49112
      vertex -15 24 17.5
      vertex -15 33.564 9.46452
    endloop
  endfacet
  facet normal -1 0 0
    outer loop
      vertex -15 37.3586 6.1191
      vertex -15 37.2798 6.39058
      vertex -15 44 17.5
    endloop
  endfacet
  facet normal -1 0 0
    outer loop
      vertex -15 37.2798 6.39058
      vertex -15 37.184 6.65656
      vertex -15 44 17.5
    endloop
  endfacet
  facet normal -1 0 0
    outer loop
      vertex -15 33.564 9.46452
      vertex -15 24 17.5
      vertex -15 33.8432 9.42029
    endloop
  endfacet
  facet normal -1 0 0
    outer loop
      vertex -15 37.184 6.65656
      vertex -15 37.0717 6.91601
      vertex -15 44 17.5
    endloop
  endfacet
  facet normal -1 0 0
    outer loop
      vertex -15 33.8432 9.42029
      vertex -15 24 17.5
      vertex -15 34.1191 9.35862
    endloop
  endfacet
  facet normal -1 0 0
    outer loop
      vertex -15 37.0717 6.91601
      vertex -15 36.9434 7.16789
      vertex -15 44 17.5
    endloop
  endfacet
  facet normal -1 0 0
    outer loop
      vertex -15 34.1191 9.35862
      vertex -15 24 17.5
      vertex -15 34.3906 9.27975
    endloop
  endfacet
  facet normal -1 0 0
    outer loop
      vertex -15 36.9434 7.16789
      vertex -15 36.7995 7.41122
      vertex -15 44 17.5
    endloop
  endfacet
  facet normal -1 0 0
    outer loop
      vertex -15 34.3906 9.27975
      vertex -15 24 17.5
      vertex -15 34.6566 9.18399
    endloop
  endfacet
  facet normal -1 0 0
    outer loop
      vertex -15 36.7995 7.41122
      vertex -15 36.6406 7.64503
      vertex -15 44 17.5
    endloop
  endfacet
  facet normal -1 0 0
    outer loop
      vertex -15 36.6406 7.64503
      vertex -15 36.4673 7.86841
      vertex -15 44 17.5
    endloop
  endfacet
  facet normal -1 0 0
    outer loop
      vertex -15 34.6566 9.18399
      vertex -15 24 17.5
      vertex -15 34.916 9.07172
    endloop
  endfacet
  facet normal -1 0 0
    outer loop
      vertex -15 36.4673 7.86841
      vertex -15 36.2804 8.08046
      vertex -15 44 17.5
    endloop
  endfacet
  facet normal -1 0 0
    outer loop
      vertex -15 34.916 9.07172
      vertex -15 24 17.5
      vertex -15 35.1679 8.94338
    endloop
  endfacet
  facet normal -1 0 0
    outer loop
      vertex -15 36.2804 8.08046
      vertex -15 36.0805 8.28036
      vertex -15 44 17.5
    endloop
  endfacet
  facet normal -1 0 0
    outer loop
      vertex -15 35.1679 8.94338
      vertex -15 24 17.5
      vertex -15 35.4112 8.79948
    endloop
  endfacet
  facet normal -1 0 0
    outer loop
      vertex -15 36.0805 8.28036
      vertex -15 35.8684 8.46731
      vertex -15 44 17.5
    endloop
  endfacet
  facet normal -1 0 0
    outer loop
      vertex -15 35.8684 8.46731
      vertex -15 35.645 8.64058
      vertex -15 44 17.5
    endloop
  endfacet
  facet normal -1 0 0
    outer loop
      vertex -15 31.6094 9.27975
      vertex -15 24 17.5
      vertex -15 31.8809 9.35862
    endloop
  endfacet
  facet normal -1 0 0
    outer loop
      vertex -15 31.3434 9.18399
      vertex -15 24 17.5
      vertex -15 31.6094 9.27975
    endloop
  endfacet
  facet normal -1 0 0
    outer loop
      vertex -15 31.084 9.07172
      vertex -15 24 17.5
      vertex -15 31.3434 9.18399
    endloop
  endfacet
  facet normal -1 0 0
    outer loop
      vertex -15 29.3594 7.64503
      vertex -15 24 17.5
      vertex -15 29.5327 7.86841
    endloop
  endfacet
  facet normal -1 0 0
    outer loop
      vertex -15 29.2005 7.41122
      vertex -15 24 17.5
      vertex -15 29.3594 7.64503
    endloop
  endfacet
  facet normal -1 0 0
    outer loop
      vertex -15 29.0566 7.16789
      vertex -15 24 17.5
      vertex -15 29.2005 7.41122
    endloop
  endfacet
  facet normal -1 0 0
    outer loop
      vertex -15 28.9283 6.91601
      vertex -15 24 17.5
      vertex -15 29.0566 7.16789
    endloop
  endfacet
  facet normal -1 0 0
    outer loop
      vertex -15 28.816 6.65656
      vertex -15 24 17.5
      vertex -15 28.9283 6.91601
    endloop
  endfacet
  facet normal -1 0 0
    outer loop
      vertex -15 28.7202 6.39058
      vertex -15 24 17.5
      vertex -15 28.816 6.65656
    endloop
  endfacet
  facet normal -1 0 0
    outer loop
      vertex -15 28.6414 6.1191
      vertex -15 24 17.5
      vertex -15 28.7202 6.39058
    endloop
  endfacet
  facet normal -1 0 0
    outer loop
      vertex -15 28.5797 5.84322
      vertex -15 24 17.5
      vertex -15 28.6414 6.1191
    endloop
  endfacet
  facet normal -1 0 0
    outer loop
      vertex -15 28.5355 5.564
      vertex -15 24 17.5
      vertex -15 28.5797 5.84322
    endloop
  endfacet
  facet normal -1 0 0
    outer loop
      vertex -15 28.5089 5.28256
      vertex -15 24 17.5
      vertex -15 28.5355 5.564
    endloop
  endfacet
  facet normal -1 0 0
    outer loop
      vertex -15 28.5 5
      vertex -15 24 17.5
      vertex -15 28.5089 5.28256
    endloop
  endfacet
  facet normal -1 0 0
    outer loop
      vertex -15 30.8321 1.05662
      vertex -15 44 -7.5
      vertex -15 30.5888 1.20052
    endloop
  endfacet
  facet normal 0 0 1
    outer loop
      vertex -15 44 17.5
      vertex -15 24 17.5
      vertex 15 24 17.5
    endloop
  endfacet
  facet normal 0 0 1
    outer loop
      vertex 15 44 17.5
      vertex -15 44 17.5
      vertex 15 24 17.5
    endloop
  endfacet
  facet normal 1 0 0
    outer loop
      vertex -20.55 20.55 -1.5
      vertex -20.55 20.55 32.5
      vertex -20.55 -20.55 32.5
    endloop
  endfacet
  facet normal 1 0 0
    outer loop
      vertex -20.55 -20.55 -1.5
      vertex -20.55 20.55 -1.5
      vertex -20.55 -20.55 32.5
    endloop
  endfacet
  facet normal 0 1 0
    outer loop
      vertex 20.55 -20.55 32.5
      vertex 20.55 -20.55 -1.5
      vertex -20.55 -20.55 32.5
    endloop
  endfacet
  facet normal 0 1 0
    outer loop
      vertex -20.55 -20.55 32.5
      vertex 20.55 -20.55 -1.5
      vertex -20.55 -20.55 -1.5
    endloop
  endfacet
  facet normal -1 0 0
    outer loop
      vertex 20.55 20.55 32.5
      vertex 20.55 20.55 -1.5
      vertex 20.55 -20.55 32.5
    endloop
  endfacet
  facet normal -1 0 0
    outer loop
      vertex 20.55 -20.55 32.5
      vertex 20.55 20.55 -1.5
      vertex 20.55 -20.55 -1.5
    endloop
  endfacet
  facet normal 0 -1 0
    outer loop
      vertex 20.55 20.55 -1.5
      vertex 20.55 20.55 32.5
      vertex -20.55 20.55 32.5
    endloop
  endfacet
  facet normal 0 -1 0
    outer loop
      vertex -20.55 20.55 -1.5
      vertex 20.55 20.55 -1.5
      vertex -20.55 20.55 32.5
    endloop
  endfacet
  facet normal -6.97482e-18 0.999507 0.0314118
    outer loop
      vertex 15 28.5089 4.71744
      vertex -15 28.5089 4.71744
      vertex 15 28.5 5
    endloop
  endfacet
  facet normal -6.97482e-18 0.999507 0.0314118
    outer loop
      vertex 15 28.5 5
      vertex -15 28.5089 4.71744
      vertex -15 28.5 5
    endloop
  endfacet
  facet normal -2.08961e-17 0.995562 0.0941076
    outer loop
      vertex 15 28.5355 4.436
      vertex -15 28.5355 4.436
      vertex 15 28.5089 4.71744
    endloop
  endfacet
  facet normal -2.08961e-17 0.995562 0.0941076
    outer loop
      vertex 15 28.5089 4.71744
      vertex -15 28.5355 4.436
      vertex -15 28.5089 4.71744
    endloop
  endfacet
  facet normal -3.47351e-17 0.987689 0.156433
    outer loop
      vertex 15 28.5797 4.15678
      vertex -15 28.5797 4.15678
      vertex 15 28.5355 4.436
    endloop
  endfacet
  facet normal -3.47351e-17 0.987689 0.156433
    outer loop
      vertex 15 28.5355 4.436
      vertex -15 28.5797 4.15678
      vertex -15 28.5355 4.436
    endloop
  endfacet
  facet normal -4.84381e-17 0.975916 0.218146
    outer loop
      vertex 15 28.6414 3.8809
      vertex -15 28.6414 3.8809
      vertex 15 28.5797 4.15678
    endloop
  endfacet
  facet normal -4.84381e-17 0.975916 0.218146
    outer loop
      vertex 15 28.5797 4.15678
      vertex -15 28.6414 3.8809
      vertex -15 28.5797 4.15678
    endloop
  endfacet
  facet normal -6.19485e-17 0.960294 0.278991
    outer loop
      vertex 15 28.7202 3.60942
      vertex -15 28.7202 3.60942
      vertex 15 28.6414 3.8809
    endloop
  endfacet
  facet normal -6.19485e-17 0.960294 0.278991
    outer loop
      vertex 15 28.6414 3.8809
      vertex -15 28.7202 3.60942
      vertex -15 28.6414 3.8809
    endloop
  endfacet
  facet normal -7.52148e-17 0.940881 0.338738
    outer loop
      vertex 15 28.816 3.34344
      vertex -15 28.816 3.34344
      vertex 15 28.7202 3.60942
    endloop
  endfacet
  facet normal -7.52148e-17 0.940881 0.338738
    outer loop
      vertex 15 28.7202 3.60942
      vertex -15 28.816 3.34344
      vertex -15 28.7202 3.60942
    endloop
  endfacet
  facet normal -8.81841e-17 0.917756 0.397146
    outer loop
      vertex 15 28.9283 3.08399
      vertex -15 28.9283 3.08399
      vertex 15 28.816 3.34344
    endloop
  endfacet
  facet normal -8.81841e-17 0.917756 0.397146
    outer loop
      vertex 15 28.816 3.34344
      vertex -15 28.9283 3.08399
      vertex -15 28.816 3.34344
    endloop
  endfacet
  facet normal -1.00806e-16 0.891006 0.453991
    outer loop
      vertex 15 29.0566 2.83211
      vertex -15 29.0566 2.83211
      vertex 15 28.9283 3.08399
    endloop
  endfacet
  facet normal -1.00806e-16 0.891006 0.453991
    outer loop
      vertex 15 28.9283 3.08399
      vertex -15 29.0566 2.83211
      vertex -15 28.9283 3.08399
    endloop
  endfacet
  facet normal -1.1303e-16 0.860743 0.50904
    outer loop
      vertex 15 29.2005 2.58878
      vertex -15 29.2005 2.58878
      vertex 15 29.0566 2.83211
    endloop
  endfacet
  facet normal -1.1303e-16 0.860743 0.50904
    outer loop
      vertex 15 29.0566 2.83211
      vertex -15 29.2005 2.58878
      vertex -15 29.0566 2.83211
    endloop
  endfacet
  facet normal -1.24808e-16 0.827079 0.562085
    outer loop
      vertex 15 29.3594 2.35497
      vertex -15 29.3594 2.35497
      vertex 15 29.2005 2.58878
    endloop
  endfacet
  facet normal -1.24808e-16 0.827079 0.562085
    outer loop
      vertex 15 29.2005 2.58878
      vertex -15 29.3594 2.35497
      vertex -15 29.2005 2.58878
    endloop
  endfacet
  facet normal -1.36092e-16 0.790156 0.612906
    outer loop
      vertex 15 29.5327 2.13159
      vertex -15 29.5327 2.13159
      vertex 15 29.3594 2.35497
    endloop
  endfacet
  facet normal -1.36092e-16 0.790156 0.612906
    outer loop
      vertex 15 29.3594 2.35497
      vertex -15 29.5327 2.13159
      vertex -15 29.3594 2.35497
    endloop
  endfacet
  facet normal -1.46841e-16 0.750111 0.661312
    outer loop
      vertex 15 29.7196 1.91954
      vertex -15 29.7196 1.91954
      vertex 15 29.5327 2.13159
    endloop
  endfacet
  facet normal -1.46841e-16 0.750111 0.661312
    outer loop
      vertex 15 29.5327 2.13159
      vertex -15 29.7196 1.91954
      vertex -15 29.5327 2.13159
    endloop
  endfacet
  facet normal -1.57009e-16 0.707107 0.707107
    outer loop
      vertex 15 29.9195 1.71964
      vertex -15 29.9195 1.71964
      vertex 15 29.7196 1.91954
    endloop
  endfacet
  facet normal -1.57009e-16 0.707107 0.707107
    outer loop
      vertex 15 29.7196 1.91954
      vertex -15 29.9195 1.71964
      vertex -15 29.7196 1.91954
    endloop
  endfacet
  facet normal -1.66558e-16 0.661312 0.750111
    outer loop
      vertex 15 29.9195 1.71964
      vertex 15 30.1316 1.53269
      vertex -15 30.1316 1.53269
    endloop
  endfacet
  facet normal -1.66558e-16 0.661312 0.750111
    outer loop
      vertex -15 29.9195 1.71964
      vertex 15 29.9195 1.71964
      vertex -15 30.1316 1.53269
    endloop
  endfacet
  facet normal -1.7545e-16 0.612906 0.790156
    outer loop
      vertex 15 30.1316 1.53269
      vertex 15 30.355 1.35942
      vertex -15 30.355 1.35942
    endloop
  endfacet
  facet normal -1.7545e-16 0.612906 0.790156
    outer loop
      vertex -15 30.1316 1.53269
      vertex 15 30.1316 1.53269
      vertex -15 30.355 1.35942
    endloop
  endfacet
  facet normal -1.83648e-16 0.562085 0.827079
    outer loop
      vertex 15 30.355 1.35942
      vertex 15 30.5888 1.20052
      vertex -15 30.5888 1.20052
    endloop
  endfacet
  facet normal -1.83648e-16 0.562085 0.827079
    outer loop
      vertex -15 30.355 1.35942
      vertex 15 30.355 1.35942
      vertex -15 30.5888 1.20052
    endloop
  endfacet
  facet normal -1.91123e-16 0.50904 0.860743
    outer loop
      vertex 15 30.5888 1.20052
      vertex 15 30.8321 1.05662
      vertex -15 30.8321 1.05662
    endloop
  endfacet
  facet normal -1.91123e-16 0.50904 0.860743
    outer loop
      vertex -15 30.5888 1.20052
      vertex 15 30.5888 1.20052
      vertex -15 30.8321 1.05662
    endloop
  endfacet
  facet normal -1.97843e-16 0.453991 0.891006
    outer loop
      vertex 15 30.8321 1.05662
      vertex 15 31.084 0.928278
      vertex -15 31.084 0.928278
    endloop
  endfacet
  facet normal -1.97843e-16 0.453991 0.891006
    outer loop
      vertex -15 30.8321 1.05662
      vertex 15 30.8321 1.05662
      vertex -15 31.084 0.928278
    endloop
  endfacet
  facet normal -2.03783e-16 0.397146 0.917756
    outer loop
      vertex 15 31.084 0.928278
      vertex 15 31.3434 0.816006
      vertex -15 31.3434 0.816006
    endloop
  endfacet
  facet normal -2.03783e-16 0.397146 0.917756
    outer loop
      vertex -15 31.084 0.928278
      vertex 15 31.084 0.928278
      vertex -15 31.3434 0.816006
    endloop
  endfacet
  facet normal -2.08918e-16 0.338738 0.940881
    outer loop
      vertex 15 31.3434 0.816006
      vertex 15 31.6094 0.720246
      vertex -15 31.6094 0.720246
    endloop
  endfacet
  facet normal -2.08918e-16 0.338738 0.940881
    outer loop
      vertex -15 31.3434 0.816006
      vertex 15 31.3434 0.816006
      vertex -15 31.6094 0.720246
    endloop
  endfacet
  facet normal -2.13228e-16 0.278991 0.960294
    outer loop
      vertex 15 31.6094 0.720246
      vertex 15 31.8809 0.641376
      vertex -15 31.8809 0.641376
    endloop
  endfacet
  facet normal -2.13228e-16 0.278991 0.960294
    outer loop
      vertex -15 31.6094 0.720246
      vertex 15 31.6094 0.720246
      vertex -15 31.8809 0.641376
    endloop
  endfacet
  facet normal -2.16697e-16 0.218146 0.975916
    outer loop
      vertex 15 31.8809 0.641376
      vertex 15 32.1568 0.579707
      vertex -15 32.1568 0.579707
    endloop
  endfacet
  facet normal -2.16697e-16 0.218146 0.975916
    outer loop
      vertex -15 31.8809 0.641376
      vertex 15 31.8809 0.641376
      vertex -15 32.1568 0.579707
    endloop
  endfacet
  facet normal -2.19311e-16 0.156433 0.987689
    outer loop
      vertex 15 32.1568 0.579707
      vertex 15 32.436 0.535484
      vertex -15 32.436 0.535484
    endloop
  endfacet
  facet normal -2.19311e-16 0.156433 0.987689
    outer loop
      vertex -15 32.1568 0.579707
      vertex 15 32.1568 0.579707
      vertex -15 32.436 0.535484
    endloop
  endfacet
  facet normal -2.21059e-16 0.0941076 0.995562
    outer loop
      vertex 15 32.436 0.535484
      vertex 15 32.7174 0.50888
      vertex -15 32.7174 0.50888
    endloop
  endfacet
  facet normal -2.21059e-16 0.0941076 0.995562
    outer loop
      vertex -15 32.436 0.535484
      vertex 15 32.436 0.535484
      vertex -15 32.7174 0.50888
    endloop
  endfacet
  facet normal -2.21935e-16 0.0314118 0.999507
    outer loop
      vertex 15 32.7174 0.50888
      vertex 15 33 0.5
      vertex -15 33 0.5
    endloop
  endfacet
  facet normal -2.21935e-16 0.0314118 0.999507
    outer loop
      vertex -15 32.7174 0.50888
      vertex 15 32.7174 0.50888
      vertex -15 33 0.5
    endloop
  endfacet
  facet normal -2.21935e-16 -0.0314118 0.999507
    outer loop
      vertex 15 33 0.5
      vertex 15 33.2826 0.50888
      vertex -15 33.2826 0.50888
    endloop
  endfacet
  facet normal -2.21935e-16 -0.0314118 0.999507
    outer loop
      vertex -15 33 0.5
      vertex 15 33 0.5
      vertex -15 33.2826 0.50888
    endloop
  endfacet
  facet normal -2.21059e-16 -0.0941076 0.995562
    outer loop
      vertex 15 33.2826 0.50888
      vertex 15 33.564 0.535484
      vertex -15 33.564 0.535484
    endloop
  endfacet
  facet normal -2.21059e-16 -0.0941076 0.995562
    outer loop
      vertex -15 33.2826 0.50888
      vertex 15 33.2826 0.50888
      vertex -15 33.564 0.535484
    endloop
  endfacet
  facet normal -2.19311e-16 -0.156433 0.987689
    outer loop
      vertex 15 33.564 0.535484
      vertex 15 33.8432 0.579707
      vertex -15 33.8432 0.579707
    endloop
  endfacet
  facet normal -2.19311e-16 -0.156433 0.987689
    outer loop
      vertex -15 33.564 0.535484
      vertex 15 33.564 0.535484
      vertex -15 33.8432 0.579707
    endloop
  endfacet
  facet normal -2.16697e-16 -0.218146 0.975916
    outer loop
      vertex 15 33.8432 0.579707
      vertex 15 34.1191 0.641376
      vertex -15 34.1191 0.641376
    endloop
  endfacet
  facet normal -2.16697e-16 -0.218146 0.975916
    outer loop
      vertex -15 33.8432 0.579707
      vertex 15 33.8432 0.579707
      vertex -15 34.1191 0.641376
    endloop
  endfacet
  facet normal -2.13228e-16 -0.278991 0.960294
    outer loop
      vertex 15 34.1191 0.641376
      vertex 15 34.3906 0.720246
      vertex -15 34.3906 0.720246
    endloop
  endfacet
  facet normal -2.13228e-16 -0.278991 0.960294
    outer loop
      vertex -15 34.1191 0.641376
      vertex 15 34.1191 0.641376
      vertex -15 34.3906 0.720246
    endloop
  endfacet
  facet normal -2.08918e-16 -0.338738 0.940881
    outer loop
      vertex 15 34.3906 0.720246
      vertex 15 34.6566 0.816006
      vertex -15 34.6566 0.816006
    endloop
  endfacet
  facet normal -2.08918e-16 -0.338738 0.940881
    outer loop
      vertex -15 34.3906 0.720246
      vertex 15 34.3906 0.720246
      vertex -15 34.6566 0.816006
    endloop
  endfacet
  facet normal -2.03783e-16 -0.397146 0.917756
    outer loop
      vertex 15 34.6566 0.816006
      vertex 15 34.916 0.928278
      vertex -15 34.916 0.928278
    endloop
  endfacet
  facet normal -2.03783e-16 -0.397146 0.917756
    outer loop
      vertex -15 34.6566 0.816006
      vertex 15 34.6566 0.816006
      vertex -15 34.916 0.928278
    endloop
  endfacet
  facet normal -1.97843e-16 -0.453991 0.891006
    outer loop
      vertex 15 34.916 0.928278
      vertex 15 35.1679 1.05662
      vertex -15 35.1679 1.05662
    endloop
  endfacet
  facet normal -1.97843e-16 -0.453991 0.891006
    outer loop
      vertex -15 34.916 0.928278
      vertex 15 34.916 0.928278
      vertex -15 35.1679 1.05662
    endloop
  endfacet
  facet normal -1.91123e-16 -0.50904 0.860743
    outer loop
      vertex 15 35.1679 1.05662
      vertex 15 35.4112 1.20052
      vertex -15 35.4112 1.20052
    endloop
  endfacet
  facet normal -1.91123e-16 -0.50904 0.860743
    outer loop
      vertex -15 35.1679 1.05662
      vertex 15 35.1679 1.05662
      vertex -15 35.4112 1.20052
    endloop
  endfacet
  facet normal -1.83648e-16 -0.562085 0.827079
    outer loop
      vertex 15 35.4112 1.20052
      vertex 15 35.645 1.35942
      vertex -15 35.645 1.35942
    endloop
  endfacet
  facet normal -1.83648e-16 -0.562085 0.827079
    outer loop
      vertex -15 35.4112 1.20052
      vertex 15 35.4112 1.20052
      vertex -15 35.645 1.35942
    endloop
  endfacet
  facet normal -1.7545e-16 -0.612906 0.790156
    outer loop
      vertex 15 35.645 1.35942
      vertex 15 35.8684 1.53269
      vertex -15 35.8684 1.53269
    endloop
  endfacet
  facet normal -1.7545e-16 -0.612906 0.790156
    outer loop
      vertex -15 35.645 1.35942
      vertex 15 35.645 1.35942
      vertex -15 35.8684 1.53269
    endloop
  endfacet
  facet normal -1.66558e-16 -0.661312 0.750111
    outer loop
      vertex 15 35.8684 1.53269
      vertex 15 36.0805 1.71964
      vertex -15 36.0805 1.71964
    endloop
  endfacet
  facet normal -1.66558e-16 -0.661312 0.750111
    outer loop
      vertex -15 35.8684 1.53269
      vertex 15 35.8684 1.53269
      vertex -15 36.0805 1.71964
    endloop
  endfacet
  facet normal -1.57009e-16 -0.707107 0.707107
    outer loop
      vertex 15 36.0805 1.71964
      vertex 15 36.2804 1.91954
      vertex -15 36.2804 1.91954
    endloop
  endfacet
  facet normal -1.57009e-16 -0.707107 0.707107
    outer loop
      vertex -15 36.0805 1.71964
      vertex 15 36.0805 1.71964
      vertex -15 36.2804 1.91954
    endloop
  endfacet
  facet normal -1.46841e-16 -0.750111 0.661312
    outer loop
      vertex 15 36.2804 1.91954
      vertex 15 36.4673 2.13159
      vertex -15 36.4673 2.13159
    endloop
  endfacet
  facet normal -1.46841e-16 -0.750111 0.661312
    outer loop
      vertex -15 36.2804 1.91954
      vertex 15 36.2804 1.91954
      vertex -15 36.4673 2.13159
    endloop
  endfacet
  facet normal -1.36092e-16 -0.790156 0.612906
    outer loop
      vertex 15 36.4673 2.13159
      vertex 15 36.6406 2.35497
      vertex -15 36.6406 2.35497
    endloop
  endfacet
  facet normal -1.36092e-16 -0.790156 0.612906
    outer loop
      vertex -15 36.4673 2.13159
      vertex 15 36.4673 2.13159
      vertex -15 36.6406 2.35497
    endloop
  endfacet
  facet normal -1.24808e-16 -0.827079 0.562085
    outer loop
      vertex 15 36.6406 2.35497
      vertex 15 36.7995 2.58878
      vertex -15 36.7995 2.58878
    endloop
  endfacet
  facet normal -1.24808e-16 -0.827079 0.562085
    outer loop
      vertex -15 36.6406 2.35497
      vertex 15 36.6406 2.35497
      vertex -15 36.7995 2.58878
    endloop
  endfacet
  facet normal -1.1303e-16 -0.860743 0.50904
    outer loop
      vertex 15 36.7995 2.58878
      vertex 15 36.9434 2.83211
      vertex -15 36.9434 2.83211
    endloop
  endfacet
  facet normal -1.1303e-16 -0.860743 0.50904
    outer loop
      vertex -15 36.7995 2.58878
      vertex 15 36.7995 2.58878
      vertex -15 36.9434 2.83211
    endloop
  endfacet
  facet normal -1.00806e-16 -0.891006 0.453991
    outer loop
      vertex 15 36.9434 2.83211
      vertex 15 37.0717 3.08399
      vertex -15 37.0717 3.08399
    endloop
  endfacet
  facet normal -1.00806e-16 -0.891006 0.453991
    outer loop
      vertex -15 36.9434 2.83211
      vertex 15 36.9434 2.83211
      vertex -15 37.0717 3.08399
    endloop
  endfacet
  facet normal -8.81841e-17 -0.917756 0.397146
    outer loop
      vertex 15 37.0717 3.08399
      vertex 15 37.184 3.34344
      vertex -15 37.184 3.34344
    endloop
  endfacet
  facet normal -8.81841e-17 -0.917756 0.397146
    outer loop
      vertex -15 37.0717 3.08399
      vertex 15 37.0717 3.08399
      vertex -15 37.184 3.34344
    endloop
  endfacet
  facet normal -7.52148e-17 -0.940881 0.338738
    outer loop
      vertex 15 37.184 3.34344
      vertex 15 37.2798 3.60942
      vertex -15 37.2798 3.60942
    endloop
  endfacet
  facet normal -7.52148e-17 -0.940881 0.338738
    outer loop
      vertex -15 37.184 3.34344
      vertex 15 37.184 3.34344
      vertex -15 37.2798 3.60942
    endloop
  endfacet
  facet normal -6.19485e-17 -0.960294 0.278991
    outer loop
      vertex 15 37.2798 3.60942
      vertex 15 37.3586 3.8809
      vertex -15 37.3586 3.8809
    endloop
  endfacet
  facet normal -6.19485e-17 -0.960294 0.278991
    outer loop
      vertex -15 37.2798 3.60942
      vertex 15 37.2798 3.60942
      vertex -15 37.3586 3.8809
    endloop
  endfacet
  facet normal -4.84381e-17 -0.975916 0.218146
    outer loop
      vertex 15 37.3586 3.8809
      vertex 15 37.4203 4.15678
      vertex -15 37.4203 4.15678
    endloop
  endfacet
  facet normal -4.84381e-17 -0.975916 0.218146
    outer loop
      vertex -15 37.3586 3.8809
      vertex 15 37.3586 3.8809
      vertex -15 37.4203 4.15678
    endloop
  endfacet
  facet normal -3.47351e-17 -0.987689 0.156433
    outer loop
      vertex 15 37.4203 4.15678
      vertex 15 37.4645 4.436
      vertex -15 37.4645 4.436
    endloop
  endfacet
  facet normal -3.47351e-17 -0.987689 0.156433
    outer loop
      vertex -15 37.4203 4.15678
      vertex 15 37.4203 4.15678
      vertex -15 37.4645 4.436
    endloop
  endfacet
  facet normal -2.08961e-17 -0.995562 0.0941076
    outer loop
      vertex 15 37.4645 4.436
      vertex 15 37.4911 4.71744
      vertex -15 37.4911 4.71744
    endloop
  endfacet
  facet normal -2.08961e-17 -0.995562 0.0941076
    outer loop
      vertex -15 37.4645 4.436
      vertex 15 37.4645 4.436
      vertex -15 37.4911 4.71744
    endloop
  endfacet
  facet normal -6.97482e-18 -0.999507 0.0314118
    outer loop
      vertex 15 37.4911 4.71744
      vertex 15 37.5 5
      vertex -15 37.5 5
    endloop
  endfacet
  facet normal -6.97482e-18 -0.999507 0.0314118
    outer loop
      vertex -15 37.4911 4.71744
      vertex 15 37.4911 4.71744
      vertex -15 37.5 5
    endloop
  endfacet
  facet normal 6.97482e-18 -0.999507 -0.0314118
    outer loop
      vertex -15 37.5 5
      vertex 15 37.5 5
      vertex 15 37.4911 5.28256
    endloop
  endfacet
  facet normal 6.97482e-18 -0.999507 -0.0314118
    outer loop
      vertex -15 37.4911 5.28256
      vertex -15 37.5 5
      vertex 15 37.4911 5.28256
    endloop
  endfacet
  facet normal 2.08961e-17 -0.995562 -0.0941076
    outer loop
      vertex -15 37.4911 5.28256
      vertex 15 37.4911 5.28256
      vertex 15 37.4645 5.564
    endloop
  endfacet
  facet normal 2.08961e-17 -0.995562 -0.0941076
    outer loop
      vertex -15 37.4645 5.564
      vertex -15 37.4911 5.28256
      vertex 15 37.4645 5.564
    endloop
  endfacet
  facet normal 3.47351e-17 -0.987689 -0.156433
    outer loop
      vertex -15 37.4645 5.564
      vertex 15 37.4645 5.564
      vertex 15 37.4203 5.84322
    endloop
  endfacet
  facet normal 3.47351e-17 -0.987689 -0.156433
    outer loop
      vertex -15 37.4203 5.84322
      vertex -15 37.4645 5.564
      vertex 15 37.4203 5.84322
    endloop
  endfacet
  facet normal 4.84381e-17 -0.975916 -0.218146
    outer loop
      vertex -15 37.4203 5.84322
      vertex 15 37.4203 5.84322
      vertex 15 37.3586 6.1191
    endloop
  endfacet
  facet normal 4.84381e-17 -0.975916 -0.218146
    outer loop
      vertex -15 37.3586 6.1191
      vertex -15 37.4203 5.84322
      vertex 15 37.3586 6.1191
    endloop
  endfacet
  facet normal 6.19485e-17 -0.960294 -0.278991
    outer loop
      vertex -15 37.3586 6.1191
      vertex 15 37.3586 6.1191
      vertex 15 37.2798 6.39058
    endloop
  endfacet
  facet normal 6.19485e-17 -0.960294 -0.278991
    outer loop
      vertex -15 37.2798 6.39058
      vertex -15 37.3586 6.1191
      vertex 15 37.2798 6.39058
    endloop
  endfacet
  facet normal 7.52148e-17 -0.940881 -0.338738
    outer loop
      vertex -15 37.2798 6.39058
      vertex 15 37.2798 6.39058
      vertex 15 37.184 6.65656
    endloop
  endfacet
  facet normal 7.52148e-17 -0.940881 -0.338738
    outer loop
      vertex -15 37.184 6.65656
      vertex -15 37.2798 6.39058
      vertex 15 37.184 6.65656
    endloop
  endfacet
  facet normal 8.81841e-17 -0.917756 -0.397146
    outer loop
      vertex -15 37.184 6.65656
      vertex 15 37.184 6.65656
      vertex 15 37.0717 6.91601
    endloop
  endfacet
  facet normal 8.81841e-17 -0.917756 -0.397146
    outer loop
      vertex -15 37.0717 6.91601
      vertex -15 37.184 6.65656
      vertex 15 37.0717 6.91601
    endloop
  endfacet
  facet normal 1.00806e-16 -0.891006 -0.453991
    outer loop
      vertex -15 37.0717 6.91601
      vertex 15 37.0717 6.91601
      vertex 15 36.9434 7.16789
    endloop
  endfacet
  facet normal 1.00806e-16 -0.891006 -0.453991
    outer loop
      vertex -15 36.9434 7.16789
      vertex -15 37.0717 6.91601
      vertex 15 36.9434 7.16789
    endloop
  endfacet
  facet normal 1.1303e-16 -0.860743 -0.50904
    outer loop
      vertex -15 36.9434 7.16789
      vertex 15 36.9434 7.16789
      vertex 15 36.7995 7.41122
    endloop
  endfacet
  facet normal 1.1303e-16 -0.860743 -0.50904
    outer loop
      vertex -15 36.7995 7.41122
      vertex -15 36.9434 7.16789
      vertex 15 36.7995 7.41122
    endloop
  endfacet
  facet normal 1.24808e-16 -0.827079 -0.562085
    outer loop
      vertex -15 36.7995 7.41122
      vertex 15 36.7995 7.41122
      vertex 15 36.6406 7.64503
    endloop
  endfacet
  facet normal 1.24808e-16 -0.827079 -0.562085
    outer loop
      vertex -15 36.6406 7.64503
      vertex -15 36.7995 7.41122
      vertex 15 36.6406 7.64503
    endloop
  endfacet
  facet normal 1.36092e-16 -0.790156 -0.612906
    outer loop
      vertex -15 36.6406 7.64503
      vertex 15 36.6406 7.64503
      vertex 15 36.4673 7.86841
    endloop
  endfacet
  facet normal 1.36092e-16 -0.790156 -0.612906
    outer loop
      vertex -15 36.4673 7.86841
      vertex -15 36.6406 7.64503
      vertex 15 36.4673 7.86841
    endloop
  endfacet
  facet normal 1.46841e-16 -0.750111 -0.661312
    outer loop
      vertex -15 36.4673 7.86841
      vertex 15 36.4673 7.86841
      vertex 15 36.2804 8.08046
    endloop
  endfacet
  facet normal 1.46841e-16 -0.750111 -0.661312
    outer loop
      vertex -15 36.2804 8.08046
      vertex -15 36.4673 7.86841
      vertex 15 36.2804 8.08046
    endloop
  endfacet
  facet normal 1.57009e-16 -0.707107 -0.707107
    outer loop
      vertex -15 36.2804 8.08046
      vertex 15 36.2804 8.08046
      vertex 15 36.0805 8.28036
    endloop
  endfacet
  facet normal 1.57009e-16 -0.707107 -0.707107
    outer loop
      vertex -15 36.0805 8.28036
      vertex -15 36.2804 8.08046
      vertex 15 36.0805 8.28036
    endloop
  endfacet
  facet normal 1.66558e-16 -0.661312 -0.750111
    outer loop
      vertex 15 36.0805 8.28036
      vertex 15 35.8684 8.46731
      vertex -15 36.0805 8.28036
    endloop
  endfacet
  facet normal 1.66558e-16 -0.661312 -0.750111
    outer loop
      vertex -15 36.0805 8.28036
      vertex 15 35.8684 8.46731
      vertex -15 35.8684 8.46731
    endloop
  endfacet
  facet normal 1.7545e-16 -0.612906 -0.790156
    outer loop
      vertex 15 35.8684 8.46731
      vertex 15 35.645 8.64058
      vertex -15 35.8684 8.46731
    endloop
  endfacet
  facet normal 1.7545e-16 -0.612906 -0.790156
    outer loop
      vertex -15 35.8684 8.46731
      vertex 15 35.645 8.64058
      vertex -15 35.645 8.64058
    endloop
  endfacet
  facet normal 1.83648e-16 -0.562085 -0.827079
    outer loop
      vertex 15 35.645 8.64058
      vertex 15 35.4112 8.79948
      vertex -15 35.645 8.64058
    endloop
  endfacet
  facet normal 1.83648e-16 -0.562085 -0.827079
    outer loop
      vertex -15 35.645 8.64058
      vertex 15 35.4112 8.79948
      vertex -15 35.4112 8.79948
    endloop
  endfacet
  facet normal 1.91123e-16 -0.50904 -0.860743
    outer loop
      vertex 15 35.4112 8.79948
      vertex 15 35.1679 8.94338
      vertex -15 35.4112 8.79948
    endloop
  endfacet
  facet normal 1.91123e-16 -0.50904 -0.860743
    outer loop
      vertex -15 35.4112 8.79948
      vertex 15 35.1679 8.94338
      vertex -15 35.1679 8.94338
    endloop
  endfacet
  facet normal 1.97843e-16 -0.453991 -0.891006
    outer loop
      vertex 15 35.1679 8.94338
      vertex 15 34.916 9.07172
      vertex -15 35.1679 8.94338
    endloop
  endfacet
  facet normal 1.97843e-16 -0.453991 -0.891006
    outer loop
      vertex -15 35.1679 8.94338
      vertex 15 34.916 9.07172
      vertex -15 34.916 9.07172
    endloop
  endfacet
  facet normal 2.03783e-16 -0.397146 -0.917756
    outer loop
      vertex 15 34.916 9.07172
      vertex 15 34.6566 9.18399
      vertex -15 34.916 9.07172
    endloop
  endfacet
  facet normal 2.03783e-16 -0.397146 -0.917756
    outer loop
      vertex -15 34.916 9.07172
      vertex 15 34.6566 9.18399
      vertex -15 34.6566 9.18399
    endloop
  endfacet
  facet normal 2.08918e-16 -0.338738 -0.940881
    outer loop
      vertex 15 34.6566 9.18399
      vertex 15 34.3906 9.27975
      vertex -15 34.6566 9.18399
    endloop
  endfacet
  facet normal 2.08918e-16 -0.338738 -0.940881
    outer loop
      vertex -15 34.6566 9.18399
      vertex 15 34.3906 9.27975
      vertex -15 34.3906 9.27975
    endloop
  endfacet
  facet normal 2.13228e-16 -0.278991 -0.960294
    outer loop
      vertex 15 34.3906 9.27975
      vertex 15 34.1191 9.35862
      vertex -15 34.3906 9.27975
    endloop
  endfacet
  facet normal 2.13228e-16 -0.278991 -0.960294
    outer loop
      vertex -15 34.3906 9.27975
      vertex 15 34.1191 9.35862
      vertex -15 34.1191 9.35862
    endloop
  endfacet
  facet normal 2.16697e-16 -0.218146 -0.975916
    outer loop
      vertex 15 34.1191 9.35862
      vertex 15 33.8432 9.42029
      vertex -15 34.1191 9.35862
    endloop
  endfacet
  facet normal 2.16697e-16 -0.218146 -0.975916
    outer loop
      vertex -15 34.1191 9.35862
      vertex 15 33.8432 9.42029
      vertex -15 33.8432 9.42029
    endloop
  endfacet
  facet normal 2.19311e-16 -0.156433 -0.987689
    outer loop
      vertex 15 33.8432 9.42029
      vertex 15 33.564 9.46452
      vertex -15 33.8432 9.42029
    endloop
  endfacet
  facet normal 2.19311e-16 -0.156433 -0.987689
    outer loop
      vertex -15 33.8432 9.42029
      vertex 15 33.564 9.46452
      vertex -15 33.564 9.46452
    endloop
  endfacet
  facet normal 2.21059e-16 -0.0941076 -0.995562
    outer loop
      vertex 15 33.564 9.46452
      vertex 15 33.2826 9.49112
      vertex -15 33.564 9.46452
    endloop
  endfacet
  facet normal 2.21059e-16 -0.0941076 -0.995562
    outer loop
      vertex -15 33.564 9.46452
      vertex 15 33.2826 9.49112
      vertex -15 33.2826 9.49112
    endloop
  endfacet
  facet normal 2.21935e-16 -0.0314118 -0.999507
    outer loop
      vertex 15 33.2826 9.49112
      vertex 15 33 9.5
      vertex -15 33.2826 9.49112
    endloop
  endfacet
  facet normal 2.21935e-16 -0.0314118 -0.999507
    outer loop
      vertex -15 33.2826 9.49112
      vertex 15 33 9.5
      vertex -15 33 9.5
    endloop
  endfacet
  facet normal 2.21935e-16 0.0314118 -0.999507
    outer loop
      vertex 15 33 9.5
      vertex 15 32.7174 9.49112
      vertex -15 33 9.5
    endloop
  endfacet
  facet normal 2.21935e-16 0.0314118 -0.999507
    outer loop
      vertex -15 33 9.5
      vertex 15 32.7174 9.49112
      vertex -15 32.7174 9.49112
    endloop
  endfacet
  facet normal 2.21059e-16 0.0941076 -0.995562
    outer loop
      vertex 15 32.7174 9.49112
      vertex 15 32.436 9.46452
      vertex -15 32.7174 9.49112
    endloop
  endfacet
  facet normal 2.21059e-16 0.0941076 -0.995562
    outer loop
      vertex -15 32.7174 9.49112
      vertex 15 32.436 9.46452
      vertex -15 32.436 9.46452
    endloop
  endfacet
  facet normal 2.19311e-16 0.156433 -0.987689
    outer loop
      vertex 15 32.436 9.46452
      vertex 15 32.1568 9.42029
      vertex -15 32.436 9.46452
    endloop
  endfacet
  facet normal 2.19311e-16 0.156433 -0.987689
    outer loop
      vertex -15 32.436 9.46452
      vertex 15 32.1568 9.42029
      vertex -15 32.1568 9.42029
    endloop
  endfacet
  facet normal 2.16697e-16 0.218146 -0.975916
    outer loop
      vertex 15 32.1568 9.42029
      vertex 15 31.8809 9.35862
      vertex -15 32.1568 9.42029
    endloop
  endfacet
  facet normal 2.16697e-16 0.218146 -0.975916
    outer loop
      vertex -15 32.1568 9.42029
      vertex 15 31.8809 9.35862
      vertex -15 31.8809 9.35862
    endloop
  endfacet
  facet normal 2.13228e-16 0.278991 -0.960294
    outer loop
      vertex 15 31.8809 9.35862
      vertex 15 31.6094 9.27975
      vertex -15 31.8809 9.35862
    endloop
  endfacet
  facet normal 2.13228e-16 0.278991 -0.960294
    outer loop
      vertex -15 31.8809 9.35862
      vertex 15 31.6094 9.27975
      vertex -15 31.6094 9.27975
    endloop
  endfacet
  facet normal 2.08918e-16 0.338738 -0.940881
    outer loop
      vertex 15 31.6094 9.27975
      vertex 15 31.3434 9.18399
      vertex -15 31.6094 9.27975
    endloop
  endfacet
  facet normal 2.08918e-16 0.338738 -0.940881
    outer loop
      vertex -15 31.6094 9.27975
      vertex 15 31.3434 9.18399
      vertex -15 31.3434 9.18399
    endloop
  endfacet
  facet normal 2.03783e-16 0.397146 -0.917756
    outer loop
      vertex 15 31.3434 9.18399
      vertex 15 31.084 9.07172
      vertex -15 31.3434 9.18399
    endloop
  endfacet
  facet normal 2.03783e-16 0.397146 -0.917756
    outer loop
      vertex -15 31.3434 9.18399
      vertex 15 31.084 9.07172
      vertex -15 31.084 9.07172
    endloop
  endfacet
  facet normal 1.97843e-16 0.453991 -0.891006
    outer loop
      vertex 15 31.084 9.07172
      vertex 15 30.8321 8.94338
      vertex -15 31.084 9.07172
    endloop
  endfacet
  facet normal 1.97843e-16 0.453991 -0.891006
    outer loop
      vertex -15 31.084 9.07172
      vertex 15 30.8321 8.94338
      vertex -15 30.8321 8.94338
    endloop
  endfacet
  facet normal 1.91123e-16 0.50904 -0.860743
    outer loop
      vertex 15 30.8321 8.94338
      vertex 15 30.5888 8.79948
      vertex -15 30.8321 8.94338
    endloop
  endfacet
  facet normal 1.91123e-16 0.50904 -0.860743
    outer loop
      vertex -15 30.8321 8.94338
      vertex 15 30.5888 8.79948
      vertex -15 30.5888 8.79948
    endloop
  endfacet
  facet normal 1.83648e-16 0.562085 -0.827079
    outer loop
      vertex 15 30.5888 8.79948
      vertex 15 30.355 8.64058
      vertex -15 30.5888 8.79948
    endloop
  endfacet
  facet normal 1.83648e-16 0.562085 -0.827079
    outer loop
      vertex -15 30.5888 8.79948
      vertex 15 30.355 8.64058
      vertex -15 30.355 8.64058
    endloop
  endfacet
  facet normal 1.7545e-16 0.612906 -0.790156
    outer loop
      vertex 15 30.355 8.64058
      vertex 15 30.1316 8.46731
      vertex -15 30.355 8.64058
    endloop
  endfacet
  facet normal 1.7545e-16 0.612906 -0.790156
    outer loop
      vertex -15 30.355 8.64058
      vertex 15 30.1316 8.46731
      vertex -15 30.1316 8.46731
    endloop
  endfacet
  facet normal 1.66558e-16 0.661312 -0.750111
    outer loop
      vertex 15 30.1316 8.46731
      vertex 15 29.9195 8.28036
      vertex -15 30.1316 8.46731
    endloop
  endfacet
  facet normal 1.66558e-16 0.661312 -0.750111
    outer loop
      vertex -15 30.1316 8.46731
      vertex 15 29.9195 8.28036
      vertex -15 29.9195 8.28036
    endloop
  endfacet
  facet normal 1.57009e-16 0.707107 -0.707107
    outer loop
      vertex 15 29.9195 8.28036
      vertex 15 29.7196 8.08046
      vertex -15 29.9195 8.28036
    endloop
  endfacet
  facet normal 1.57009e-16 0.707107 -0.707107
    outer loop
      vertex -15 29.9195 8.28036
      vertex 15 29.7196 8.08046
      vertex -15 29.7196 8.08046
    endloop
  endfacet
  facet normal 1.46841e-16 0.750111 -0.661312
    outer loop
      vertex 15 29.7196 8.08046
      vertex 15 29.5327 7.86841
      vertex -15 29.7196 8.08046
    endloop
  endfacet
  facet normal 1.46841e-16 0.750111 -0.661312
    outer loop
      vertex -15 29.7196 8.08046
      vertex 15 29.5327 7.86841
      vertex -15 29.5327 7.86841
    endloop
  endfacet
  facet normal 1.36092e-16 0.790156 -0.612906
    outer loop
      vertex 15 29.5327 7.86841
      vertex 15 29.3594 7.64503
      vertex -15 29.5327 7.86841
    endloop
  endfacet
  facet normal 1.36092e-16 0.790156 -0.612906
    outer loop
      vertex -15 29.5327 7.86841
      vertex 15 29.3594 7.64503
      vertex -15 29.3594 7.64503
    endloop
  endfacet
  facet normal 1.24808e-16 0.827079 -0.562085
    outer loop
      vertex 15 29.3594 7.64503
      vertex 15 29.2005 7.41122
      vertex -15 29.3594 7.64503
    endloop
  endfacet
  facet normal 1.24808e-16 0.827079 -0.562085
    outer loop
      vertex -15 29.3594 7.64503
      vertex 15 29.2005 7.41122
      vertex -15 29.2005 7.41122
    endloop
  endfacet
  facet normal 1.1303e-16 0.860743 -0.50904
    outer loop
      vertex 15 29.2005 7.41122
      vertex 15 29.0566 7.16789
      vertex -15 29.2005 7.41122
    endloop
  endfacet
  facet normal 1.1303e-16 0.860743 -0.50904
    outer loop
      vertex -15 29.2005 7.41122
      vertex 15 29.0566 7.16789
      vertex -15 29.0566 7.16789
    endloop
  endfacet
  facet normal 1.00806e-16 0.891006 -0.453991
    outer loop
      vertex 15 29.0566 7.16789
      vertex 15 28.9283 6.91601
      vertex -15 29.0566 7.16789
    endloop
  endfacet
  facet normal 1.00806e-16 0.891006 -0.453991
    outer loop
      vertex -15 29.0566 7.16789
      vertex 15 28.9283 6.91601
      vertex -15 28.9283 6.91601
    endloop
  endfacet
  facet normal 8.81841e-17 0.917756 -0.397146
    outer loop
      vertex 15 28.9283 6.91601
      vertex 15 28.816 6.65656
      vertex -15 28.9283 6.91601
    endloop
  endfacet
  facet normal 8.81841e-17 0.917756 -0.397146
    outer loop
      vertex -15 28.9283 6.91601
      vertex 15 28.816 6.65656
      vertex -15 28.816 6.65656
    endloop
  endfacet
  facet normal 7.52148e-17 0.940881 -0.338738
    outer loop
      vertex 15 28.816 6.65656
      vertex 15 28.7202 6.39058
      vertex -15 28.816 6.65656
    endloop
  endfacet
  facet normal 7.52148e-17 0.940881 -0.338738
    outer loop
      vertex -15 28.816 6.65656
      vertex 15 28.7202 6.39058
      vertex -15 28.7202 6.39058
    endloop
  endfacet
  facet normal 6.19485e-17 0.960294 -0.278991
    outer loop
      vertex 15 28.7202 6.39058
      vertex 15 28.6414 6.1191
      vertex -15 28.7202 6.39058
    endloop
  endfacet
  facet normal 6.19485e-17 0.960294 -0.278991
    outer loop
      vertex -15 28.7202 6.39058
      vertex 15 28.6414 6.1191
      vertex -15 28.6414 6.1191
    endloop
  endfacet
  facet normal 4.84381e-17 0.975916 -0.218146
    outer loop
      vertex 15 28.6414 6.1191
      vertex 15 28.5797 5.84322
      vertex -15 28.6414 6.1191
    endloop
  endfacet
  facet normal 4.84381e-17 0.975916 -0.218146
    outer loop
      vertex -15 28.6414 6.1191
      vertex 15 28.5797 5.84322
      vertex -15 28.5797 5.84322
    endloop
  endfacet
  facet normal 3.47351e-17 0.987689 -0.156433
    outer loop
      vertex 15 28.5797 5.84322
      vertex 15 28.5355 5.564
      vertex -15 28.5797 5.84322
    endloop
  endfacet
  facet normal 3.47351e-17 0.987689 -0.156433
    outer loop
      vertex -15 28.5797 5.84322
      vertex 15 28.5355 5.564
      vertex -15 28.5355 5.564
    endloop
  endfacet
  facet normal 2.08961e-17 0.995562 -0.0941076
    outer loop
      vertex 15 28.5355 5.564
      vertex 15 28.5089 5.28256
      vertex -15 28.5355 5.564
    endloop
  endfacet
  facet normal 2.08961e-17 0.995562 -0.0941076
    outer loop
      vertex -15 28.5355 5.564
      vertex 15 28.5089 5.28256
      vertex -15 28.5089 5.28256
    endloop
  endfacet
  facet normal 6.97482e-18 0.999507 -0.0314118
    outer loop
      vertex 15 28.5089 5.28256
      vertex 15 28.5 5
      vertex -15 28.5089 5.28256
    endloop
  endfacet
  facet normal 6.97482e-18 0.999507 -0.0314118
    outer loop
      vertex -15 28.5089 5.28256
      vertex 15 28.5 5
      vertex -15 28.5 5
    endloop
  endfacet
  facet normal 0 0 1
    outer loop
      vertex 20.55 -20.55 -1.5
      vertex 20.55 20.55 -1.5
      vertex -20.55 20.55 -1.5
    endloop
  endfacet
  facet normal 0 0 1
    outer loop
      vertex -20.55 -20.55 -1.5
      vertex 20.55 -20.55 -1.5
      vertex -20.55 20.55 -1.5
    endloop
  endfacet
endsolid OpenSCAD_Model
